<svg width="340" height="340" viewBox="0 0 340 340" fill="none" xmlns="http://www.w3.org/2000/svg">
<circle cx="170" cy="170" r="170" fill="#FFFBED"/>
<mask id="mask0_55_7917" style="mask-type:alpha" maskUnits="userSpaceOnUse" x="0" y="0" width="340" height="340">
<circle cx="170" cy="170" r="170" fill="#D9D9D9"/>
</mask>
<g mask="url(#mask0_55_7917)">
<g clip-path="url(#clip0_55_7917)">
<path d="M317.093 279.222H292.695V279.406H317.093V279.222Z" fill="#EBEBEB"/>
<path d="M229.666 281.225H223.265V281.41H229.666V281.225Z" fill="#EBEBEB"/>
<path d="M291.958 272.385H277.822V272.57H291.958V272.385Z" fill="#EBEBEB"/>
<path d="M56.1315 273.623H24.3152V273.807H56.1315V273.623Z" fill="#EBEBEB"/>
<path d="M67.3581 273.623H62.6951V273.807H67.3581V273.623Z" fill="#EBEBEB"/>
<path d="M151.529 276.732H82.5186V276.916H151.529V276.732Z" fill="#EBEBEB"/>
<path d="M160.258 234.514H18.0166C16.9023 234.512 15.8343 234.068 15.047 233.279C14.2598 232.491 13.8176 231.422 13.8176 230.307V30.3558C13.8273 29.2479 14.2738 28.1886 15.06 27.4079C15.8462 26.6272 16.9086 26.1882 18.0166 26.1863H160.258C161.374 26.1863 162.444 26.6295 163.233 27.4183C164.021 28.2072 164.465 29.2771 164.465 30.3927V230.307C164.465 231.423 164.021 232.493 163.233 233.282C162.444 234.071 161.374 234.514 160.258 234.514ZM18.0166 26.3337C16.9511 26.3356 15.93 26.7602 15.1773 27.5143C14.4245 28.2684 14.0018 29.2904 14.0018 30.3558V230.307C14.0018 231.373 14.4245 232.395 15.1773 233.149C15.93 233.903 16.9511 234.328 18.0166 234.33H160.258C161.324 234.328 162.346 233.903 163.1 233.149C163.854 232.396 164.278 231.374 164.28 230.307V30.3558C164.278 29.2897 163.854 28.2678 163.1 27.5139C162.346 26.76 161.324 26.3356 160.258 26.3337H18.0166Z" fill="#EBEBEB"/>
<path d="M319.605 234.514H177.356C176.241 234.512 175.172 234.068 174.384 233.28C173.596 232.491 173.152 231.422 173.15 230.307V30.3558C173.162 29.2472 173.61 28.1879 174.397 27.4074C175.184 26.6269 176.248 26.1882 177.356 26.1863H319.605C320.712 26.1902 321.773 26.63 322.557 27.4105C323.342 28.1909 323.787 29.2492 323.797 30.3558V230.307C323.797 231.42 323.356 232.488 322.57 233.277C321.784 234.065 320.718 234.51 319.605 234.514ZM177.356 26.3337C176.29 26.3356 175.268 26.76 174.514 27.5139C173.76 28.2678 173.336 29.2897 173.334 30.3558V230.307C173.336 231.374 173.76 232.396 174.514 233.149C175.268 233.903 176.29 234.328 177.356 234.33H319.605C320.671 234.328 321.693 233.903 322.447 233.149C323.201 232.396 323.625 231.374 323.627 230.307V30.3558C323.625 29.2897 323.201 28.2678 322.447 27.5139C321.693 26.76 320.671 26.3356 319.605 26.3337H177.356Z" fill="#EBEBEB"/>
<path d="M354 267.369H-14.3301V267.553H354V267.369Z" fill="#E0E0E0"/>
<path d="M82.5703 150.962H14.002V267.384H82.5703V150.962Z" fill="#BCBCBC"/>
<path d="M85.679 150.962H14.002V159.618H85.679V150.962Z" fill="#BCBCBC"/>
<path d="M51.1887 144.98H26.4738L22.5916 121.119H55.0783L51.1887 144.98Z" fill="#C4BFBF"/>
<path d="M54.9822 121.834L46.4001 121.856L44.9194 144.951L51.1884 144.98L54.9822 121.834Z" fill="#BCBCBC"/>
<path d="M56.4261 103.278H21.6779C18.1505 103.278 15.291 106.137 15.291 109.665V115.455C15.291 118.982 18.1505 121.842 21.6779 121.842H56.4261C59.9535 121.842 62.813 118.982 62.813 115.455V109.665C62.813 106.137 59.9535 103.278 56.4261 103.278Z" fill="#C4BFBF"/>
<path d="M62.9455 110.696V114.379C62.9455 118.482 59.6453 121.746 54.7981 121.746H45.553C50.4002 121.746 52.9196 118.46 52.9196 114.379V110.696C52.9264 109.722 52.7412 108.757 52.3745 107.854C52.0079 106.952 51.4671 106.131 50.7829 105.438C50.0988 104.745 49.2847 104.194 48.3873 103.815C47.4899 103.437 46.5268 103.239 45.553 103.234H55.5421C56.5182 103.237 57.484 103.434 58.3843 103.811C59.2846 104.188 60.1019 104.738 60.7893 105.431C61.4768 106.124 62.0211 106.946 62.391 107.849C62.761 108.753 62.9494 109.72 62.9455 110.696Z" fill="#BCBCBC"/>
<path d="M43.2769 127.926H34.3633V133.032H43.2769V127.926Z" fill="#BCBCBC"/>
<path d="M39.5641 127.926H34.3633V133.032H39.5641V127.926Z" fill="#BCBCBC"/>
<path d="M62.592 148.074C62.592 148.476 62.5127 148.874 62.3586 149.246C62.2045 149.617 61.9786 149.954 61.694 150.238C61.4093 150.522 61.0714 150.747 60.6997 150.901C60.3279 151.054 59.9296 151.132 59.5275 151.131H18.1346C17.7325 151.132 17.3342 151.054 16.9624 150.901C16.5906 150.747 16.2527 150.522 15.9681 150.238C15.6834 149.954 15.4576 149.617 15.3035 149.246C15.1494 148.874 15.0701 148.476 15.0701 148.074C15.0701 147.261 15.3927 146.48 15.9672 145.905C16.5417 145.329 17.3211 145.004 18.1346 145.002H59.5275C60.3409 145.004 61.1204 145.329 61.6949 145.905C62.2694 146.48 62.592 147.261 62.592 148.074Z" fill="#BCBCBC"/>
<path d="M46.4665 148.074C46.4626 148.885 46.1383 149.661 45.5642 150.234C44.9901 150.807 44.2129 151.129 43.402 151.131H18.1346C17.7325 151.132 17.3342 151.054 16.9624 150.901C16.5906 150.747 16.2527 150.522 15.9681 150.238C15.6834 149.954 15.4576 149.617 15.3035 149.246C15.1494 148.874 15.0701 148.476 15.0701 148.074C15.0701 147.261 15.3927 146.48 15.9672 145.905C16.5417 145.329 17.3211 145.004 18.1346 145.002H43.402C44.2154 145.004 44.9949 145.329 45.5694 145.905C46.1439 146.48 46.4665 147.261 46.4665 148.074Z" fill="#C4BFBF"/>
<path d="M43.4758 112.589C43.4758 113.198 43.3558 113.802 43.1225 114.365C42.8893 114.928 42.5475 115.44 42.1165 115.871C41.6855 116.302 41.1739 116.643 40.6109 116.877C40.0478 117.11 39.4443 117.23 38.8348 117.23C38.3935 117.233 37.9541 117.171 37.531 117.046C36.5687 116.763 35.7239 116.177 35.1229 115.374C34.5218 114.571 34.197 113.595 34.197 112.593C34.197 111.59 34.5218 110.614 35.1229 109.811C35.7239 109.008 36.5687 108.422 37.531 108.14C37.9537 108.012 38.3931 107.947 38.8348 107.948C40.0651 107.95 41.2444 108.44 42.1143 109.309C42.9843 110.179 43.4739 111.359 43.4758 112.589Z" fill="#E0E0E0"/>
<path d="M40.8754 112.589C40.8755 113.594 40.5496 114.572 39.9465 115.375C39.3434 116.179 38.4957 116.765 37.531 117.046C36.5687 116.764 35.7239 116.177 35.1229 115.374C34.5218 114.571 34.197 113.596 34.197 112.593C34.197 111.59 34.5218 110.614 35.1229 109.811C35.7239 109.009 36.5687 108.422 37.531 108.14C38.4945 108.42 39.3413 109.005 39.9443 109.807C40.5472 110.61 40.8739 111.586 40.8754 112.589Z" fill="#FAFAFA"/>
<path d="M46.1496 121.893H31.2986V127.831H46.1496V121.893Z" fill="#BCBCBC"/>
<path d="M41.6045 121.893H31.2986V127.831H41.6045V121.893Z" fill="#BCBCBC"/>
<path d="M48.8608 114.526C49.939 114.526 50.813 113.652 50.813 112.574C50.813 111.496 49.939 110.622 48.8608 110.622C47.7827 110.622 46.9087 111.496 46.9087 112.574C46.9087 113.652 47.7827 114.526 48.8608 114.526Z" fill="#E0E0E0"/>
<path d="M55.5422 114.526C56.6204 114.526 57.4944 113.652 57.4944 112.574C57.4944 111.496 56.6204 110.622 55.5422 110.622C54.4641 110.622 53.5901 111.496 53.5901 112.574C53.5901 113.652 54.4641 114.526 55.5422 114.526Z" fill="#E0E0E0"/>
<path d="M22.5916 114.526C23.6697 114.526 24.5437 113.652 24.5437 112.574C24.5437 111.496 23.6697 110.622 22.5916 110.622C21.5134 110.622 20.6394 111.496 20.6394 112.574C20.6394 113.652 21.5134 114.526 22.5916 114.526Z" fill="#E0E0E0"/>
<path d="M50.7615 129.68H43.3359V132H50.7615V129.68Z" fill="#E0E0E0"/>
<path d="M46.1646 122.556H31.343C31.1707 122.538 31.0111 122.457 30.8951 122.329C30.7791 122.2 30.7148 122.033 30.7148 121.86C30.7148 121.687 30.7791 121.52 30.8951 121.391C31.0111 121.263 31.1707 121.182 31.343 121.164H46.1498C46.2473 121.154 46.3457 121.164 46.4388 121.195C46.5319 121.225 46.6176 121.275 46.6904 121.34C46.7631 121.406 46.8212 121.486 46.861 121.576C46.9008 121.665 46.9214 121.762 46.9214 121.86C46.9214 121.958 46.9008 122.055 46.861 122.144C46.8212 122.234 46.7631 122.314 46.6904 122.38C46.6176 122.445 46.5319 122.495 46.4388 122.525C46.3457 122.556 46.2473 122.566 46.1498 122.556H46.1646Z" fill="#E0E0E0"/>
<path d="M48.8607 115.219C48.3376 115.219 47.8263 115.064 47.3914 114.773C46.9565 114.483 46.6175 114.07 46.4174 113.586C46.2172 113.103 46.1648 112.571 46.2669 112.058C46.3689 111.545 46.6208 111.074 46.9907 110.704C47.3605 110.335 47.8317 110.083 48.3447 109.981C48.8577 109.879 49.3895 109.931 49.8727 110.131C50.356 110.331 50.769 110.67 51.0596 111.105C51.3502 111.54 51.5053 112.051 51.5053 112.574C51.5053 113.276 51.2267 113.948 50.7307 114.444C50.2347 114.94 49.5621 115.219 48.8607 115.219ZM48.8607 111.322C48.613 111.322 48.3709 111.396 48.1649 111.533C47.959 111.671 47.7985 111.866 47.7037 112.095C47.6089 112.324 47.5841 112.576 47.6324 112.819C47.6807 113.062 47.8 113.285 47.9752 113.46C48.1503 113.635 48.3734 113.754 48.6164 113.803C48.8593 113.851 49.1111 113.826 49.3399 113.731C49.5688 113.637 49.7643 113.476 49.9019 113.27C50.0395 113.064 50.113 112.822 50.113 112.574C50.113 112.242 49.9811 111.924 49.7462 111.689C49.5113 111.454 49.1928 111.322 48.8607 111.322Z" fill="#FAFAFA"/>
<path d="M55.5421 115.219C55.019 115.219 54.5077 115.064 54.0728 114.773C53.6379 114.483 53.2989 114.07 53.0988 113.586C52.8986 113.103 52.8462 112.571 52.9483 112.058C53.0503 111.545 53.3022 111.074 53.672 110.704C54.0419 110.335 54.5131 110.083 55.0261 109.981C55.5391 109.879 56.0709 109.931 56.5541 110.131C57.0374 110.331 57.4504 110.67 57.741 111.105C58.0316 111.54 58.1867 112.051 58.1867 112.574C58.1867 112.922 58.1183 113.266 57.9854 113.586C57.8525 113.907 57.6577 114.199 57.4121 114.444C57.1665 114.69 56.875 114.885 56.5541 115.018C56.2333 115.151 55.8894 115.219 55.5421 115.219ZM55.5421 111.322C55.2944 111.322 55.0523 111.396 54.8463 111.533C54.6404 111.671 54.4799 111.866 54.3851 112.095C54.2903 112.324 54.2655 112.576 54.3138 112.819C54.3621 113.062 54.4814 113.285 54.6565 113.46C54.8317 113.635 55.0548 113.754 55.2978 113.803C55.5407 113.851 55.7925 113.826 56.0213 113.731C56.2501 113.637 56.4457 113.476 56.5833 113.27C56.7209 113.064 56.7944 112.822 56.7944 112.574C56.7944 112.41 56.762 112.247 56.6991 112.095C56.6361 111.943 56.5439 111.805 56.4276 111.689C56.3113 111.573 56.1733 111.48 56.0213 111.417C55.8694 111.354 55.7065 111.322 55.5421 111.322Z" fill="#FAFAFA"/>
<path d="M22.5914 115.219C22.0683 115.219 21.557 115.064 21.1221 114.773C20.6872 114.483 20.3483 114.07 20.1481 113.586C19.9479 113.103 19.8956 112.571 19.9976 112.058C20.0996 111.545 20.3515 111.074 20.7214 110.704C21.0912 110.335 21.5624 110.083 22.0754 109.981C22.5885 109.879 23.1202 109.931 23.6034 110.131C24.0867 110.331 24.4997 110.67 24.7903 111.105C25.0809 111.54 25.236 112.051 25.236 112.574C25.236 113.276 24.9574 113.948 24.4614 114.444C23.9654 114.94 23.2928 115.219 22.5914 115.219ZM22.5914 111.322C22.3437 111.322 22.1016 111.396 21.8956 111.533C21.6897 111.671 21.5292 111.866 21.4344 112.095C21.3396 112.324 21.3148 112.576 21.3631 112.819C21.4114 113.062 21.5307 113.285 21.7059 113.46C21.881 113.635 22.1041 113.754 22.3471 113.803C22.59 113.851 22.8418 113.826 23.0706 113.731C23.2995 113.637 23.495 113.476 23.6327 113.27C23.7703 113.064 23.8437 112.822 23.8437 112.574C23.8437 112.41 23.8113 112.247 23.7484 112.095C23.6854 111.943 23.5932 111.805 23.4769 111.689C23.3606 111.573 23.2226 111.48 23.0706 111.417C22.9187 111.354 22.7558 111.322 22.5914 111.322Z" fill="#FAFAFA"/>
<path d="M38.7684 111.094C38.587 111.083 38.4159 111.006 38.2881 110.876C38.1603 110.747 38.0847 110.575 38.0759 110.394V108.073C38.0937 107.901 38.1747 107.742 38.3033 107.626C38.4318 107.51 38.5989 107.445 38.7721 107.445C38.9453 107.445 39.1123 107.51 39.2409 107.626C39.3695 107.742 39.4505 107.901 39.4682 108.073V110.394C39.4593 110.577 39.3827 110.749 39.2533 110.879C39.124 111.008 38.9511 111.085 38.7684 111.094Z" fill="#E6E6E6"/>
<path d="M75.9107 262.382H18.8196V165.275H75.9107V262.382ZM19.5489 261.645H75.1741V166.012H19.5562L19.5489 261.645Z" fill="#E6E6E6" stroke="#FAFAFA" stroke-width="0.53534" stroke-miterlimit="10"/>
<path d="M27.0039 202.241H22.5913V215.744H27.0039V202.241Z" fill="#E0E0E0"/>
<path d="M299.524 241.939L298.787 242.035C298.736 241.652 294.198 203.662 303.561 172.62C312.872 141.761 306.463 122.099 306.397 121.908L307.134 121.665C307.2 121.864 313.683 141.754 304.305 172.833C294.957 203.721 299.487 241.564 299.524 241.939Z" fill="#E0E0E0"/>
<path d="M307.723 126.136C306.094 124.196 303.882 122.832 301.417 122.247L301.586 121.51C304.218 122.126 306.581 123.573 308.327 125.635L307.723 126.136Z" fill="#E0E0E0"/>
<path d="M310.929 129.318L308.774 130.536L309.143 131.19L311.299 129.972L310.929 129.318Z" fill="#E0E0E0"/>
<path d="M306.913 146.792C305.022 142.527 301.545 139.167 297.218 137.422L297.498 136.685C302.009 138.517 305.63 142.034 307.59 146.49L306.913 146.792Z" fill="#E0E0E0"/>
<path d="M304.887 170.527H304.15C304.12 169 303.752 167.497 303.073 166.128C302.395 164.759 301.421 163.557 300.224 162.608L300.688 162.019C301.973 163.039 303.017 164.33 303.743 165.802C304.469 167.273 304.859 168.887 304.887 170.527Z" fill="#E0E0E0"/>
<path d="M303.207 176.598L302.507 176.325C302.893 175.362 303.472 174.49 304.21 173.761C304.948 173.032 305.828 172.463 306.795 172.089L307.06 172.826C306.194 173.158 305.406 173.664 304.743 174.313C304.081 174.962 303.558 175.739 303.207 176.598Z" fill="#E0E0E0"/>
<path d="M298.323 215.103L297.741 214.624C298.662 213.512 299.354 209.305 299.723 207.044C299.819 206.499 299.892 206.042 299.951 205.703L300.688 205.85C300.629 206.174 300.548 206.631 300.459 207.162C299.914 210.543 299.288 213.939 298.323 215.103Z" fill="#E0E0E0"/>
<path d="M297.888 227.191C297.368 225.709 296.391 224.429 295.098 223.537C293.805 222.645 292.262 222.186 290.691 222.226L290.654 221.489C292.388 221.446 294.092 221.953 295.52 222.937C296.948 223.922 298.027 225.334 298.603 226.97L297.888 227.191Z" fill="#E0E0E0"/>
<path d="M303.645 235.044L298.334 240.988L298.894 241.489L304.205 235.545L303.645 235.044Z" fill="#E0E0E0"/>
<path d="M307.406 196.311C308.607 200.208 300.209 207.626 300.209 207.626C300.209 207.626 289.093 206.233 287.892 202.336C286.691 198.44 289.498 192.067 294.89 190.403C300.283 188.738 306.198 192.414 307.406 196.311Z" fill="#F0F0F0"/>
<path d="M316.725 149.017C315.657 153.157 307.708 156.096 307.708 156.096C307.708 156.096 302.161 149.68 303.229 145.54C304.298 141.4 308.688 136.847 312.416 137.805C316.143 138.763 317.786 144.877 316.725 149.017Z" fill="#EBEBEB"/>
<path d="M284.813 210.86C289.807 212.804 292.865 221.637 292.865 221.637C292.865 221.637 284.636 226.057 279.649 224.134C274.662 222.212 269.336 216.709 270.809 213.084C272.282 209.46 279.818 208.922 284.813 210.86Z" fill="#F5F5F5"/>
<path d="M295.76 162.277C296.768 163.123 297.924 163.775 299.17 164.2C299.797 164.404 300.468 164.432 301.109 164.281C301.751 164.131 302.339 163.807 302.809 163.345C303.878 162.115 303.59 160.207 302.92 158.726C301.587 155.78 296.666 150.792 292.887 152.221C287.428 154.291 293.329 160.465 295.76 162.277Z" fill="#E6E6E6"/>
<path d="M306.927 169.769C306.191 170.653 305.454 171.772 305.845 172.841C306.067 173.296 306.435 173.664 306.889 173.888C307.344 174.112 307.86 174.179 308.357 174.078C309.347 173.848 310.272 173.394 311.06 172.752C312.983 171.419 316.953 168.612 314.412 165.99C311.789 163.257 308.438 167.898 306.927 169.769Z" fill="#EBEBEB"/>
<path d="M290.809 132.413C290.393 132.438 289.995 132.594 289.672 132.858C289.349 133.123 289.118 133.482 289.012 133.886C288.85 134.844 289.638 135.676 290.411 136.273C292.319 137.746 298.073 141.724 299.355 137.886C300.563 134.247 293.351 132.133 290.809 132.413Z" fill="#E0E0E0"/>
<path d="M301.41 119.787C300.224 119.904 299.038 119.47 297.852 119.543C296.666 119.617 295.34 120.582 295.642 121.753C295.944 122.925 297.226 123.19 298.323 123.227C300.201 123.343 302.085 123.214 303.929 122.844C304.367 122.805 304.773 122.599 305.064 122.269C305.542 121.532 304.784 120.612 303.966 120.361C303.148 120.111 302.22 120.192 301.476 119.764L301.41 119.787Z" fill="#E6E6E6"/>
<path d="M312.997 127.949C314.191 127.985 315.34 127.477 316.533 127.477C317.727 127.477 319.104 128.339 318.92 129.518C318.736 130.696 317.447 131.05 316.342 131.19C314.479 131.437 312.592 131.437 310.729 131.19C310.286 131.18 309.864 131 309.55 130.689C309.027 130.019 309.727 129.017 310.53 128.715C311.333 128.413 312.253 128.435 312.968 127.978L312.997 127.949Z" fill="#F0F0F0"/>
<path d="M311.826 215.692C312.096 215.413 312.456 215.238 312.843 215.199C313.097 215.226 313.335 215.339 313.518 215.518C313.701 215.697 313.819 215.932 313.852 216.186C313.904 216.685 313.839 217.19 313.66 217.659C312.85 220.355 303.789 239.921 301.704 236.407C300.474 234.33 303.502 227.449 304.393 225.504C306.127 221.732 308.664 218.383 311.826 215.692Z" fill="#F0F0F0"/>
<path d="M306.404 120.53C307.141 118.917 307.878 117.23 309.351 116.191C310.824 115.153 313.034 115.072 314.11 116.501C315.274 118.099 314.11 120.523 312.327 121.378C310.544 122.232 308.452 121.974 306.493 121.694L306.448 120.825L306.404 120.53Z" fill="#E6E6E6"/>
<path d="M312.651 267.811C303.032 269.734 293.128 269.734 283.509 267.811L275.914 234.374H320.268L312.651 267.811Z" fill="#F0F0F0"/>
<path d="M169.835 300.231C248.718 300.231 312.666 296.498 312.666 291.892C312.666 287.287 248.718 283.553 169.835 283.553C90.9515 283.553 27.0039 287.287 27.0039 291.892C27.0039 296.498 90.9515 300.231 169.835 300.231Z" fill="#F5F5F5"/>
<path d="M258.153 61.3176C258.153 79.9551 240.599 95.0493 221.976 95.0493C221.342 95.0493 220.716 95.0346 220.097 95.0051C211.485 94.5284 203.383 90.7714 197.454 84.5061C191.526 78.2408 188.223 69.943 188.223 61.3176C188.223 52.6923 191.526 44.3945 197.454 38.1292C203.383 31.8639 211.485 28.1069 220.097 27.6302C220.716 27.6302 221.342 27.5786 221.976 27.5786C240.599 27.5786 258.153 42.6875 258.153 61.3176Z" fill="#FAC100"/>
<path opacity="0.3" d="M254.396 61.3176C254.396 79.3216 237.843 94.0253 220.097 95.0051C211.485 94.5284 203.383 90.7714 197.454 84.5061C191.526 78.2408 188.223 69.943 188.223 61.3176C188.223 52.6923 191.526 44.3945 197.454 38.1292C203.383 31.8639 211.485 28.1069 220.097 27.6302C237.843 28.6099 254.396 43.321 254.396 61.3176Z" fill="white"/>
<g opacity="0.8">
<path opacity="0.8" d="M249.321 61.3176C249.321 76.2718 234.75 88.3899 219.795 88.3899C212.615 88.3899 205.729 85.5376 200.652 80.4606C195.575 75.3836 192.723 68.4976 192.723 61.3176C192.723 54.1376 195.575 47.2517 200.652 42.1746C205.729 37.0976 212.615 34.2454 219.795 34.2454C234.75 34.2454 249.321 46.3634 249.321 61.3176Z" fill="white"/>
</g>
<path d="M245.756 56.3895L244.422 56.4263C244.341 56.2716 244.481 56.0138 244.673 55.7559L244.724 55.7044C244.933 55.4598 245.16 55.2308 245.402 55.0193H245.446L229.645 55.395L230.094 56.1316C230.336 56.5517 230.47 57.0249 230.485 57.5092L230.588 61.8776C230.654 64.5443 233.623 66.6511 237.218 66.5701H238.161C240.783 66.5038 242.993 65.2883 243.98 63.6235C244.277 63.5607 244.557 63.4323 244.798 63.2478L247.288 61.2956C247.457 61.1729 247.596 61.0126 247.693 60.8272C247.79 60.6419 247.843 60.4366 247.848 60.2275L247.789 57.8702C247.767 56.9788 246.846 56.3379 245.756 56.3895ZM247.185 59.9181C247.185 60.6547 247.185 60.6032 246.507 61.1262L245.255 61.9881C245.183 62.0315 245.101 62.0555 245.017 62.0578C244.933 62.0601 244.85 62.0407 244.776 62.0014C244.702 61.9621 244.639 61.9042 244.594 61.8335C244.548 61.7627 244.522 61.6815 244.518 61.5977C244.518 60.4558 244.518 58.5479 244.466 57.546C244.501 57.3462 244.609 57.1667 244.771 57.0438C244.932 56.9208 245.134 56.8634 245.336 56.883H245.888C246.581 56.883 247.148 57.2735 247.163 57.7818L247.185 59.9181Z" fill="white"/>
<g opacity="0.8">
<path opacity="0.8" d="M245.756 56.3895L244.422 56.4263C244.341 56.2716 244.481 56.0138 244.673 55.7559L244.724 55.7044C244.933 55.4598 245.16 55.2308 245.402 55.0193H245.446L229.645 55.395L230.094 56.1316C230.336 56.5517 230.47 57.0249 230.485 57.5092L230.588 61.8776C230.654 64.5443 233.623 66.6511 237.218 66.5701H238.161C240.783 66.5038 242.993 65.2883 243.98 63.6235C244.277 63.5607 244.557 63.4323 244.798 63.2478L247.288 61.2956C247.457 61.1729 247.596 61.0126 247.693 60.8272C247.79 60.6419 247.843 60.4366 247.848 60.2275L247.789 57.8702C247.767 56.9788 246.846 56.3379 245.756 56.3895ZM247.185 59.9181C247.185 60.6547 247.185 60.6032 246.507 61.1262L245.255 61.9881C245.183 62.0315 245.101 62.0555 245.017 62.0578C244.933 62.0601 244.85 62.0407 244.776 62.0014C244.702 61.9621 244.639 61.9042 244.594 61.8335C244.548 61.7627 244.522 61.6815 244.518 61.5977C244.518 60.4558 244.518 58.5479 244.466 57.546C244.501 57.3462 244.609 57.1667 244.771 57.0438C244.932 56.9208 245.134 56.8634 245.336 56.883H245.888C246.581 56.883 247.148 57.2735 247.163 57.7818L247.185 59.9181Z" fill="white"/>
</g>
<path opacity="0.8" d="M240.554 49.8847C240.554 51.2549 238.897 52.3672 236.871 52.3672C234.845 52.3672 233.188 51.2549 233.188 49.8847C233.188 48.5145 234.845 47.3948 236.871 47.3948C238.897 47.3948 240.554 48.5071 240.554 49.8847Z" fill="white"/>
<path opacity="0.8" d="M231.81 45.7152C232.575 45.7152 233.195 45.0952 233.195 44.3303C233.195 43.5654 232.575 42.9454 231.81 42.9454C231.045 42.9454 230.425 43.5654 230.425 44.3303C230.425 45.0952 231.045 45.7152 231.81 45.7152Z" fill="white"/>
<path d="M222.683 64.9862C222.284 65.3842 221.776 65.655 221.223 65.7644C220.67 65.8738 220.098 65.8169 219.577 65.6009C219.057 65.3849 218.612 65.0195 218.299 64.5509C217.986 64.0822 217.819 63.5313 217.819 62.9678C217.819 62.4042 217.986 61.8533 218.299 61.3847C218.612 60.916 219.057 60.5506 219.577 60.3346C220.098 60.1186 220.67 60.0617 221.223 60.1711C221.776 60.2805 222.284 60.5513 222.683 60.9493C222.95 61.2131 223.163 61.5274 223.307 61.8739C223.452 62.2204 223.527 62.5922 223.527 62.9678C223.527 63.3433 223.452 63.7151 223.307 64.0616C223.163 64.4081 222.95 64.7224 222.683 64.9862Z" fill="#FAC100"/>
<path d="M219.692 63.4836L219.191 46.8646L220.127 45.1629L220.908 46.813L221.364 61.8703L240.26 66.2314L241.527 66.9975L239.928 67.9331L219.692 63.4836Z" fill="#FAC100"/>
<path d="M136.162 272.422C136.162 272.422 56.9274 297.682 183.095 294.33C183.095 294.33 165.135 269.343 136.162 272.422Z" fill="#263238"/>
<path d="M241.63 205.423C230.293 190.262 205.151 191.596 190.174 179.588C181.268 172.443 177.069 161.481 170.491 152.332C158.093 135.138 133.591 120.884 110.821 127.705C103.701 129.919 97.3416 134.08 92.4637 139.72C85.2518 147.956 81.3696 158.306 78.9828 168.671C74.4745 188.196 74.8896 208.536 80.1909 227.862C84.0731 241.895 90.703 255.435 101.259 265.836C106.603 270.985 112.623 275.381 119.153 278.905L119.263 278.971C122.431 280.732 125.709 282.33 129.046 283.811C130.741 284.548 132.442 285.284 134.203 285.984C149.879 292.29 167.109 296.445 184.207 294.161C194.557 292.716 204.476 289.068 213.296 283.462C222.115 277.856 229.629 270.424 235.331 261.667C240.243 254.145 243.761 245.801 245.718 237.033C245.984 235.817 246.227 234.595 246.455 233.35C248.002 223.751 247.501 213.298 241.63 205.423Z" fill="#FAC100"/>
<path opacity="0.2" d="M245.66 237.062C243.703 245.83 240.184 254.174 235.273 261.696C232.724 260.606 227.7 238.123 202.373 235.501C201.327 235.39 188.178 234.241 187.876 233.445C190.653 231.081 210.646 227.294 214.057 225.688C227.737 219.228 240.429 229.18 244.26 234.698C244.778 235.454 245.246 236.244 245.66 237.062Z" fill="black"/>
<path opacity="0.2" d="M122.497 132.781C108.361 132.958 97.0826 144.767 96.9352 158.903C96.67 183.949 97.7824 225.04 119.47 235.14C155.338 251.84 241.247 232.525 233.829 213.556C226.411 194.587 181.113 207.81 169.482 181.349C160.759 161.503 145.128 132.501 122.497 132.781Z" fill="black"/>
<path opacity="0.2" d="M103.256 179.972C104.144 179.433 105.198 179.236 106.221 179.416C107.244 179.596 108.166 180.142 108.817 180.951C113.237 186.358 114.18 194.535 110.711 200.65C120.368 198.359 124.398 216.223 119.278 223.486C122.593 218.514 123.897 211.648 121.156 206.337C116.626 197.541 119.109 192.812 119.109 192.812C115.749 192.207 114.291 188.981 112.479 184.951C110.666 180.922 107.116 178.763 109.827 174.012C108.325 173.556 106.948 172.764 105.799 171.695C104.65 170.627 103.76 169.31 103.197 167.846C101.281 162.984 101.723 160.052 99.1966 161.26C99.1672 161.238 106.644 176.023 103.256 179.972Z" fill="black"/>
<path opacity="0.2" d="M116.472 169.879C117.352 169.326 118.403 169.11 119.429 169.273C120.456 169.435 121.389 169.965 122.055 170.763C126.542 176.089 127.654 184.259 124.265 190.425C133.886 187.964 138.262 205.762 133.231 213.084C136.464 208.053 137.65 201.173 134.814 195.905C130.137 187.191 133.923 184.856 133.923 184.856C130.556 184.31 127.647 178.682 125.768 174.682C123.89 170.682 120.295 168.597 122.917 163.794C121.404 163.369 120.007 162.602 118.835 161.554C117.663 160.506 116.746 159.203 116.155 157.746C114.151 152.921 114.527 149.975 112.044 151.227C112.066 151.22 119.794 165.872 116.472 169.879Z" fill="black"/>
<path opacity="0.2" d="M134.218 219.589C128.825 223.862 123.433 229.269 122.925 236.127C140.902 218.128 162.959 204.735 187.22 197.084C183.161 195.611 179.006 197.261 175.043 198.285C170.046 199.688 165.174 201.507 160.479 203.721C151.101 207.901 142.28 213.231 134.218 219.589Z" fill="black"/>
<path opacity="0.2" d="M92.4858 228.399C92.435 230.002 92.9083 231.577 93.8339 232.886C94.4379 233.733 95.4545 234.514 96.449 234.204C97.4435 233.895 97.8487 232.613 98.0255 231.538C98.2845 230.328 98.3442 229.084 98.2023 227.854C98.1239 227.237 97.9103 226.646 97.5767 226.121C97.243 225.596 96.7976 225.152 96.2722 224.819C95.7354 224.507 95.1057 224.394 94.4939 224.501C93.8821 224.607 93.3275 224.926 92.9278 225.401C92.3311 226.241 92.4195 227.368 92.53 228.399" fill="white"/>
<path opacity="0.2" d="M148.737 265.144C153.386 266.028 158.174 266.698 162.852 265.94C164.435 265.682 159.721 263.943 156.841 263.221C143.581 259.877 124.744 255.207 105.665 236.083C101.105 231.508 103.212 240.171 104.877 242.3C111.433 250.691 121.083 256.393 130.903 260.164C136.69 262.345 142.658 264.012 148.737 265.144Z" fill="white"/>
<path opacity="0.2" d="M137.857 230.867C143.109 234.676 149.724 236.959 155.993 235.287C150.719 232.481 147.057 227.317 144.634 221.851C142.21 216.384 140.833 210.528 138.925 204.871C134.758 192.569 128.06 181.276 119.263 171.721C118.328 170.712 111.101 153.547 109.738 153.363C108.177 153.157 105.105 162.439 109.606 171.463C109.606 171.463 113.341 171.227 116.051 181.157C118.225 189.099 116.191 191.515 116.191 191.515C117.009 193.128 118.667 188.465 123.646 199.522C128.147 209.526 126.74 221.622 126.74 221.622C130.387 229.188 134.129 228.164 137.857 230.867Z" fill="black"/>
<path d="M245.866 200.038C245.792 200.054 245.716 200.048 245.646 200.022C245.575 199.996 245.514 199.95 245.468 199.891C244.078 198.034 242.448 196.37 240.621 194.94C240.542 194.877 240.491 194.785 240.48 194.684C240.469 194.583 240.499 194.482 240.562 194.403C240.593 194.363 240.631 194.329 240.676 194.305C240.72 194.28 240.768 194.264 240.818 194.259C240.869 194.253 240.919 194.258 240.968 194.273C241.016 194.287 241.061 194.311 241.1 194.344C242.977 195.816 244.654 197.527 246.087 199.434C246.146 199.517 246.171 199.619 246.155 199.719C246.14 199.82 246.087 199.91 246.006 199.972C245.963 200.001 245.916 200.024 245.866 200.038Z" fill="#FAC100"/>
<path d="M236.488 192.053C236.393 192.074 236.294 192.061 236.208 192.016C230.794 188.929 224.282 186.859 217.983 184.907C209.519 182.255 200.767 179.515 194.086 174.152C194.046 174.121 194.013 174.082 193.988 174.038C193.963 173.994 193.948 173.946 193.942 173.896C193.937 173.845 193.941 173.795 193.956 173.746C193.97 173.698 193.995 173.653 194.027 173.614C194.091 173.535 194.183 173.485 194.284 173.474C194.384 173.462 194.486 173.492 194.565 173.555C201.136 178.822 209.814 181.548 218.212 184.178C224.547 186.167 231.103 188.222 236.591 191.346C236.671 191.377 236.737 191.435 236.78 191.509C236.823 191.583 236.84 191.669 236.828 191.754C236.816 191.839 236.776 191.917 236.715 191.977C236.653 192.036 236.573 192.073 236.488 192.082V192.053Z" fill="#FAC100"/>
<path d="M186.447 141.356C191.132 137.982 188.259 133.157 182.542 131.367H182.491C172.126 131.683 162.063 133.481 147.72 132.656C143.138 132.398 150.608 138.836 150.94 143.411C151.146 146.24 150.394 149.083 153.466 149.032C163.581 148.84 186.447 141.356 186.447 141.356Z" fill="#5767F4"/>
<path opacity="0.7" d="M186.447 141.356C191.132 137.982 188.259 133.157 182.542 131.367H182.491C172.126 131.683 162.063 133.481 147.72 132.656C143.138 132.398 150.608 138.836 150.94 143.411C151.146 146.24 150.394 149.083 153.466 149.032C163.581 148.84 186.447 141.356 186.447 141.356Z" fill="white"/>
<mask id="mask1_55_7917" style="mask-type:luminance" maskUnits="userSpaceOnUse" x="146" y="131" width="43" height="19">
<path d="M186.447 141.355C191.132 137.981 188.259 133.156 182.542 131.366H182.491C172.126 131.683 162.063 133.48 147.72 132.655C143.138 132.397 150.608 138.836 150.94 143.411C151.146 146.239 150.394 149.083 153.466 149.031C163.581 148.84 186.447 141.355 186.447 141.355Z" fill="white"/>
</mask>
<g mask="url(#mask1_55_7917)">
<path opacity="0.1" d="M153.201 144.28C154.181 144.479 178.159 143.911 181.032 143.035C183.905 142.158 163.352 149.422 153.466 149.024C143.58 148.626 153.201 144.28 153.201 144.28Z" fill="black"/>
</g>
<path d="M171.36 191.868C164.443 195.427 157.002 197.859 149.319 199.073L132.766 201.695C131.639 198.424 127.514 191.61 119.897 173.385C116.95 164.008 113.591 161.599 113.51 146.438V146.357C113.279 145.778 113.166 145.159 113.179 144.535C113.191 143.912 113.328 143.297 113.583 142.728C113.837 142.159 114.202 141.646 114.658 141.22C115.114 140.795 115.65 140.465 116.236 140.25H116.317C118.645 139.315 121.584 138.21 124.516 137.304C130.098 135.579 135.769 134.153 141.503 133.031C143.434 132.745 145.379 132.573 147.33 132.515C148.636 132.421 149.943 132.676 151.118 133.255C152.292 133.834 153.291 134.715 154.012 135.808C158.351 142.895 165.349 157.459 171.36 191.868Z" fill="#05149E"/>
<g opacity="0.7">
<path d="M171.36 191.868C164.443 195.427 157.002 197.859 149.319 199.073L132.766 201.695C131.639 198.424 127.514 191.61 119.897 173.385C116.95 164.008 113.591 161.599 113.51 146.438V146.357C113.279 145.778 113.166 145.159 113.179 144.535C113.191 143.912 113.328 143.297 113.583 142.728C113.837 142.159 114.202 141.646 114.658 141.22C115.114 140.795 115.65 140.465 116.236 140.25H116.317C118.645 139.315 121.584 138.21 124.516 137.304C130.098 135.579 135.769 134.153 141.503 133.031C143.434 132.745 145.379 132.573 147.33 132.515C148.636 132.421 149.943 132.676 151.118 133.255C152.292 133.834 153.291 134.715 154.012 135.808C158.351 142.895 165.349 157.459 171.36 191.868Z" fill="white"/>
</g>
<path opacity="0.1" d="M127.794 185.187C127.396 185.083 127.86 188.656 133.267 191.117C138.674 193.577 162.358 180.803 164.465 175.89C164.465 175.89 140.619 188.531 127.794 185.187Z" fill="black"/>
<path opacity="0.1" d="M128.059 178.94C125.245 170.232 121.65 161.577 118.902 155.315C118.938 155.195 118.985 155.08 119.042 154.969C119.978 152.818 122.902 153.687 126.564 158.07C128.065 159.902 129.341 161.908 130.365 164.044C132.125 167.625 136.089 174.719 136.177 176.045C136.553 181.555 132.332 183.986 128.059 178.94Z" fill="black"/>
<path d="M136.553 139.145C128.258 141.724 123.926 137.444 123.926 137.444C126.689 132.825 122.762 123.219 120.133 118.055L125.621 120.685L133.105 124.265C133.132 125.14 133.211 126.014 133.341 126.88C133.426 127.5 133.566 128.112 133.761 128.707L133.798 128.81C134.637 131.3 136.523 133.112 140.715 133.053C140.715 133.075 143.625 136.921 136.553 139.145Z" fill="#F7978D"/>
<path opacity="0.2" d="M133.105 124.265C133.132 125.14 133.211 126.014 133.341 126.88C133.426 127.5 133.567 128.112 133.761 128.707L133.798 128.81C131.367 128.906 127.713 127.241 126.777 124.957C126.464 124.212 126.234 123.433 126.092 122.637L133.105 124.265Z" fill="black"/>
<path d="M122.048 137.252L124.398 135.639C127.926 137.74 131.897 138.989 135.993 139.286C134.641 140.792 133.767 142.666 133.481 144.67C123.75 143.882 122.048 137.252 122.048 137.252Z" fill="#FAC100"/>
<path d="M140.568 132.611L138.026 132.714C138.026 132.714 138.313 137.989 136 139.344C140.766 139.941 142.026 141.9 142.026 141.9C147.735 138.291 140.568 132.611 140.568 132.611Z" fill="#FAC100"/>
<g opacity="0.9">
<path d="M122.048 137.252L124.398 135.639C127.926 137.74 131.897 138.988 135.993 139.285C134.641 140.792 133.767 142.666 133.481 144.67C123.75 143.882 122.048 137.252 122.048 137.252Z" fill="white"/>
<path d="M140.568 132.611L138.026 132.714C138.026 132.714 138.313 137.989 136 139.344C140.766 139.941 142.026 141.9 142.026 141.9C147.735 138.291 140.568 132.611 140.568 132.611Z" fill="white"/>
</g>
<path d="M131.919 111.388C131.919 111.388 135.205 113.406 136.339 109.289C133.105 106.769 134.129 105.856 132.995 103.336C132.443 101.83 131.492 100.503 130.244 99.4955C128.996 98.4885 127.497 97.8401 125.908 97.6198L123.374 98.9458C115.079 105.259 131.919 111.388 131.919 111.388Z" fill="#263238"/>
<path d="M113.23 110.821C112.641 108.211 113.112 105.473 114.54 103.21C115.969 100.948 118.237 99.3448 120.847 98.7543C128.737 96.7653 136.597 105.053 139.499 111.425C140.286 113.063 140.611 114.884 140.436 116.693C140.262 118.502 139.597 120.229 138.512 121.686C137.427 123.144 135.964 124.277 134.281 124.962C132.598 125.648 130.76 125.86 128.965 125.576C123.418 124.766 120.737 121.156 115.646 115.432C114.452 114.132 113.619 112.543 113.23 110.821Z" fill="#F7978D"/>
<path d="M136.685 113.539C136.685 113.539 134.623 113.937 129.444 116.39C130.807 117.863 132.553 118.733 135.212 117.473C135.903 117.185 136.453 116.639 136.747 115.951C137.04 115.263 137.052 114.487 136.781 113.79C136.685 113.709 136.685 113.62 136.685 113.539Z" fill="#263238"/>
<mask id="mask2_55_7917" style="mask-type:luminance" maskUnits="userSpaceOnUse" x="129" y="113" width="8" height="6">
<path d="M136.685 113.539C136.685 113.539 134.623 113.937 129.444 116.39C130.807 117.863 132.553 118.733 135.212 117.473C135.903 117.185 136.453 116.639 136.747 115.951C137.04 115.263 137.052 114.487 136.781 113.79C136.685 113.709 136.685 113.62 136.685 113.539Z" fill="white"/>
</mask>
<g mask="url(#mask2_55_7917)">
<path d="M133.429 116.751C134.426 116.204 135.583 116.021 136.7 116.235C136.368 116.824 135.85 117.285 135.227 117.547C134.232 118.092 133.077 118.272 131.963 118.055C132.289 117.466 132.806 117.005 133.429 116.751Z" fill="#FF5652"/>
</g>
<path d="M136.391 113.605C136.438 113.833 136.422 114.069 136.346 114.288C136.269 114.507 136.135 114.702 135.956 114.85C134.416 115.571 132.813 116.148 131.168 116.574C130.907 116.662 130.627 116.68 130.356 116.626C130.086 116.572 129.835 116.447 129.628 116.265C131.801 115.184 134.064 114.294 136.391 113.605Z" fill="white"/>
<path d="M122.394 123.027C122.394 123.027 122.011 114.865 120.685 112.824C119.978 111.556 118.909 110.527 117.613 109.871C116.318 109.215 114.855 108.961 113.414 109.141L111.204 110.909C102.571 120.803 122.394 123.027 122.394 123.027Z" fill="#263238"/>
<path d="M133.997 112.375C134.476 112.178 134.906 111.878 135.256 111.496C135.606 111.114 135.868 110.66 136.022 110.165C134.029 109.613 132.118 108.796 130.343 107.734L133.997 112.375Z" fill="#FF5652"/>
<path d="M116.516 117.016C118.07 115.896 120.936 117.082 122.461 118.261C124.133 119.58 124.391 121.48 122.387 121.944C120.754 122.263 119.061 122.002 117.599 121.208C115.75 120.287 114.961 118.136 116.516 117.016Z" fill="#F7978D"/>
<path d="M126.372 109.627C126.704 109.392 127.315 109.627 127.661 110.084C128.008 110.541 128.052 111.123 127.728 111.366C127.404 111.609 126.858 111.366 126.439 110.917C126.019 110.467 126.048 109.863 126.372 109.627Z" fill="#263238"/>
<path d="M131.801 105.208C132.133 104.972 132.708 105.171 133.091 105.664C133.474 106.158 133.525 106.755 133.194 106.99C132.862 107.226 132.28 106.99 131.897 106.526C131.514 106.062 131.47 105.451 131.801 105.208Z" fill="#263238"/>
<path d="M129.392 103.778C129.451 103.793 129.513 103.793 129.572 103.779C129.631 103.764 129.685 103.737 129.731 103.697C130.059 103.366 130.457 103.113 130.895 102.957C131.334 102.802 131.803 102.747 132.265 102.799C132.311 102.809 132.358 102.811 132.404 102.804C132.45 102.796 132.495 102.78 132.534 102.755C132.574 102.73 132.609 102.698 132.636 102.66C132.663 102.622 132.682 102.579 132.693 102.533C132.712 102.439 132.694 102.34 132.642 102.259C132.589 102.177 132.507 102.12 132.413 102.099C131.834 102.018 131.243 102.072 130.689 102.257C130.134 102.443 129.63 102.754 129.216 103.167C129.148 103.236 129.11 103.328 129.11 103.425C129.11 103.521 129.148 103.614 129.216 103.683C129.266 103.728 129.327 103.761 129.392 103.778Z" fill="#263238"/>
<path d="M124.081 109.767C124.136 109.743 124.184 109.706 124.222 109.66C124.26 109.614 124.288 109.56 124.302 109.502C124.36 109.037 124.522 108.591 124.778 108.198C125.033 107.805 125.374 107.475 125.775 107.233C125.818 107.214 125.857 107.187 125.889 107.153C125.921 107.119 125.946 107.078 125.962 107.034C125.979 106.991 125.986 106.944 125.985 106.897C125.983 106.85 125.972 106.804 125.952 106.762C125.908 106.677 125.833 106.612 125.743 106.581C125.652 106.549 125.553 106.553 125.466 106.592C124.959 106.884 124.528 107.289 124.204 107.776C123.881 108.264 123.675 108.819 123.602 109.399C123.59 109.495 123.615 109.591 123.673 109.668C123.731 109.746 123.816 109.797 123.912 109.812C123.971 109.809 124.028 109.794 124.081 109.767Z" fill="#263238"/>
<path d="M129.385 100.176C129.031 99.3436 128.818 97.2957 127.816 96.2349C127.312 95.7054 126.701 95.2891 126.025 95.0135C125.348 94.7379 124.62 94.6093 123.889 94.6363C121.724 94.7247 119.867 96.1465 118.173 97.5093C117.752 97.8084 117.388 98.1801 117.097 98.6069C116.953 98.8224 116.869 99.0721 116.852 99.3307C116.835 99.5894 116.887 99.848 117.002 100.08C117.149 100.295 117.351 100.467 117.587 100.578C117.822 100.689 118.083 100.736 118.342 100.714C118.858 100.714 122.63 99.8151 124.295 99.6383C124.994 99.5499 127.926 99.3436 129.385 100.176Z" fill="#263238"/>
<path d="M106.644 107.034C105.12 110.202 106.541 114.85 109.127 117.016C110.184 117.835 111.286 118.595 112.427 119.292L115.455 113.848C117 111.686 117.719 109.041 117.481 106.393C117.419 105.575 117.527 104.752 117.797 103.977C118.132 103.051 118.682 102.218 119.402 101.545C120.122 100.873 120.991 100.381 121.937 100.11C122.674 99.9182 123.595 99.6235 123.558 98.8869C123.521 98.1502 122.018 97.4136 121.009 97.1631C117.046 96.0729 111.322 97.2883 106.644 107.034Z" fill="#263238"/>
<path opacity="0.2" d="M117.466 105.981C117.694 102.165 119.735 100.824 122.829 99.8077C122.422 99.1423 121.767 98.6654 121.009 98.4817C117.731 97.7156 116.795 103.631 117.466 105.981Z" fill="black"/>
<path d="M123.794 98.7174C124.141 98.8509 124.452 99.0656 124.7 99.3436C125.324 100.067 125.797 100.907 126.091 101.815C126.386 102.723 126.497 103.681 126.416 104.633C126.754 103.432 126.789 102.167 126.519 100.949C126.42 100.18 126.191 99.4325 125.842 98.7395C125.48 98.0461 124.866 97.5185 124.125 97.2662C123.754 97.1481 123.356 97.141 122.98 97.2456C122.605 97.3503 122.268 97.5623 122.011 97.8555C121.724 98.2386 121.451 99.2478 122.077 99.3288C122.704 99.4099 122.925 98.4228 123.794 98.7174Z" fill="#263238"/>
<path d="M122.917 150.969C123.285 151.919 123.772 153.083 124.221 154.173L125.621 157.474C126.593 159.684 127.565 161.82 128.612 163.941C129.658 166.063 130.748 168.118 131.934 170.048C133.015 171.923 134.247 173.707 135.617 175.382C136.214 176.118 138.822 174.078 147.853 174.211C149.936 174.187 152.007 173.888 154.012 173.319C155.124 173.024 156.222 172.678 157.29 172.295L158.903 171.691L160.435 171.072L164.082 176.045C163.485 176.597 162.991 177.01 162.468 177.518C161.956 177.994 161.412 178.435 160.84 178.837C159.709 179.664 158.528 180.421 157.304 181.106C154.719 182.579 135.941 191.117 131.087 188.428C126.254 184.745 120.103 174.682 117.584 169.724C116.324 167.33 115.175 164.973 114.121 162.593C113.584 161.348 113.097 160.185 112.604 158.947C112.516 158.726 112.339 158.284 112.096 157.695C109.709 151.728 109.038 144.803 114.667 140.98L118.497 139.506L122.917 150.969Z" fill="#5767F4"/>
<path opacity="0.7" d="M122.917 150.969C123.285 151.919 123.772 153.083 124.221 154.173L125.621 157.474C126.593 159.684 127.565 161.82 128.612 163.941C129.658 166.063 130.748 168.118 131.934 170.048C133.015 171.923 134.247 173.707 135.617 175.382C136.214 176.118 138.822 174.078 147.853 174.211C149.936 174.187 152.007 173.888 154.012 173.319C155.124 173.024 156.222 172.678 157.29 172.295L158.903 171.691L160.435 171.072L164.082 176.045C163.485 176.597 162.991 177.01 162.468 177.518C161.956 177.994 161.412 178.435 160.84 178.837C159.709 179.664 158.528 180.421 157.304 181.106C154.719 182.579 135.941 191.117 131.087 188.428C126.254 184.745 120.103 174.682 117.584 169.724C116.324 167.33 115.175 164.973 114.121 162.593C113.584 161.348 113.097 160.185 112.604 158.947C112.516 158.726 112.339 158.284 112.096 157.695C109.709 151.728 109.038 144.803 114.667 140.98L118.497 139.506L122.917 150.969Z" fill="white"/>
<path d="M165.415 169.024C166.24 169.474 167.448 169.606 168.067 168.906C169.224 167.72 170.093 166.004 169.636 164.383C167.839 162.173 166.586 165.893 165.577 166.792C164.929 167.374 164.487 168.531 165.415 169.024Z" fill="#F7978D"/>
<path d="M168.796 166.276C168.891 166.621 169.027 166.952 169.202 167.264C169.437 167.724 169.713 168.163 170.027 168.575C170.466 169.101 170.98 169.56 171.552 169.938L171.942 170.173C172.288 170.4 172.653 170.597 173.032 170.763C173.751 171.116 174.532 171.329 175.331 171.389C175.407 171.391 175.481 171.412 175.548 171.449C175.615 171.486 175.672 171.539 175.714 171.602C175.832 171.772 175.979 171.927 176.112 172.089C176.244 172.251 176.34 172.369 176.436 172.516C176.562 172.734 176.76 172.903 176.996 172.995C177.445 173.167 177.922 173.254 178.403 173.253C179.657 173.303 180.913 173.187 182.137 172.906C182.774 172.781 183.404 172.621 184.023 172.428C184.692 172.215 185.345 171.954 185.975 171.647C186.484 171.414 186.957 171.112 187.382 170.748C187.56 170.6 187.691 170.402 187.758 170.181C187.758 170.055 187.758 169.938 187.824 169.82C187.905 169.466 187.986 169.12 188.06 168.774C188.185 168.236 188.259 167.698 188.333 167.153C188.406 166.608 188.487 166.092 188.51 165.569C188.532 165.046 188.554 164.486 188.51 163.934C188.51 163.02 188.451 162.1 188.392 161.179C188.392 160.751 188.274 160.265 188.222 159.831C188.18 159.482 188.086 159.142 187.942 158.821C187.834 158.599 187.675 158.404 187.478 158.254C186.919 157.86 186.285 157.584 185.614 157.444C184.983 157.305 184.338 157.243 183.692 157.26C183.419 157.26 183.154 157.26 182.881 157.26C180.044 157.334 177.255 158.017 174.704 159.263C174.193 159.509 173.701 159.792 173.231 160.111C172.824 160.404 172.453 160.745 172.126 161.127C171.871 161.405 171.677 161.734 171.559 162.092C171.518 162.231 171.496 162.375 171.493 162.519C171.493 162.689 171.493 162.696 171.316 162.696C170.872 162.668 170.43 162.759 170.033 162.96C169.637 163.161 169.301 163.464 169.062 163.838C168.872 164.155 168.754 164.51 168.715 164.877C168.644 165.344 168.671 165.821 168.796 166.276ZM175.264 163.028C174.694 163.027 174.126 162.963 173.57 162.836C173.429 162.822 173.293 162.777 173.172 162.704C173.275 162.348 173.465 162.024 173.725 161.761C173.897 161.59 174.081 161.432 174.277 161.289C174.617 161.039 174.977 160.817 175.353 160.626C175.937 160.346 176.537 160.1 177.15 159.89C177.738 159.683 178.335 159.506 178.94 159.359C179.5 159.212 179.964 159.138 180.539 159.035C181.27 158.919 182.008 158.847 182.749 158.821C183.488 158.785 184.229 158.829 184.959 158.954C185.582 159.049 186.171 159.303 186.668 159.691C186.668 159.691 186.668 159.691 186.631 159.742L186.498 159.882C186.372 160.005 186.237 160.118 186.093 160.221C185.56 160.618 184.981 160.949 184.369 161.208C184.23 161.274 184.09 161.341 183.95 161.392L183.714 161.488C183.257 161.68 182.786 161.834 182.322 161.982C181.857 162.129 181.408 162.254 180.937 162.357L179.861 162.615C179.835 162.622 179.807 162.622 179.78 162.615L179.581 162.667C179.102 162.748 178.616 162.821 178.108 162.888C177.6 162.954 177.253 163.013 176.811 163.05C176.369 163.087 175.765 163.035 175.264 163.028ZM170.94 165.466C170.944 165.254 171.012 165.048 171.136 164.876C171.26 164.703 171.433 164.573 171.633 164.501L171.935 164.413C172.178 165.098 172.465 165.731 172.73 166.372C173.069 167.227 173.467 168.037 173.894 168.847C174.088 169.248 174.335 169.62 174.631 169.952L174.064 169.65C173.524 169.32 173.028 168.921 172.59 168.464C172.106 168.014 171.687 167.498 171.345 166.932C171.064 166.496 170.923 165.985 170.94 165.466Z" fill="#FAC100"/>
<path opacity="0.8" d="M168.796 166.276C168.891 166.621 169.027 166.952 169.202 167.264C169.437 167.724 169.713 168.163 170.027 168.575C170.466 169.101 170.98 169.56 171.552 169.938L171.942 170.173C172.288 170.4 172.653 170.597 173.032 170.763C173.751 171.116 174.532 171.329 175.331 171.389C175.407 171.391 175.481 171.412 175.548 171.449C175.615 171.486 175.672 171.539 175.714 171.602C175.832 171.772 175.979 171.927 176.112 172.089C176.244 172.251 176.34 172.369 176.436 172.516C176.562 172.734 176.76 172.903 176.996 172.995C177.445 173.167 177.922 173.254 178.403 173.253C179.657 173.303 180.913 173.187 182.137 172.906C182.774 172.781 183.404 172.621 184.023 172.428C184.692 172.215 185.345 171.954 185.975 171.647C186.484 171.414 186.957 171.112 187.382 170.748C187.56 170.6 187.691 170.402 187.758 170.181C187.758 170.055 187.758 169.938 187.824 169.82C187.905 169.466 187.986 169.12 188.06 168.774C188.185 168.236 188.259 167.698 188.333 167.153C188.406 166.608 188.487 166.092 188.51 165.569C188.532 165.046 188.554 164.486 188.51 163.934C188.51 163.02 188.451 162.1 188.392 161.179C188.392 160.751 188.274 160.265 188.222 159.831C188.18 159.482 188.086 159.142 187.942 158.821C187.834 158.599 187.675 158.404 187.478 158.254C186.919 157.86 186.285 157.584 185.614 157.444C184.983 157.305 184.338 157.243 183.692 157.26C183.419 157.26 183.154 157.26 182.881 157.26C180.044 157.334 177.255 158.017 174.704 159.263C174.193 159.509 173.701 159.792 173.231 160.111C172.824 160.404 172.453 160.745 172.126 161.127C171.871 161.405 171.677 161.734 171.559 162.092C171.518 162.231 171.496 162.375 171.493 162.519C171.493 162.689 171.493 162.696 171.316 162.696C170.872 162.668 170.43 162.759 170.033 162.96C169.637 163.161 169.301 163.464 169.062 163.838C168.872 164.155 168.754 164.51 168.715 164.877C168.644 165.344 168.671 165.821 168.796 166.276ZM175.264 163.028C174.694 163.027 174.126 162.963 173.57 162.836C173.429 162.822 173.293 162.777 173.172 162.704C173.275 162.348 173.465 162.024 173.725 161.761C173.897 161.59 174.081 161.432 174.277 161.289C174.617 161.039 174.977 160.817 175.353 160.626C175.937 160.346 176.537 160.1 177.15 159.89C177.738 159.683 178.335 159.506 178.94 159.359C179.5 159.212 179.964 159.138 180.539 159.035C181.27 158.919 182.008 158.847 182.749 158.821C183.488 158.785 184.229 158.829 184.959 158.954C185.582 159.049 186.171 159.303 186.668 159.691C186.668 159.691 186.668 159.691 186.631 159.742L186.498 159.882C186.372 160.005 186.237 160.118 186.093 160.221C185.56 160.618 184.981 160.949 184.369 161.208C184.23 161.274 184.09 161.341 183.95 161.392L183.714 161.488C183.257 161.68 182.786 161.834 182.322 161.982C181.857 162.129 181.408 162.254 180.937 162.357L179.861 162.615C179.835 162.622 179.807 162.622 179.78 162.615L179.581 162.667C179.102 162.748 178.616 162.821 178.108 162.888C177.6 162.954 177.253 163.013 176.811 163.05C176.369 163.087 175.765 163.035 175.264 163.028ZM170.94 165.466C170.944 165.254 171.012 165.048 171.136 164.876C171.26 164.703 171.433 164.573 171.633 164.501L171.935 164.413C172.178 165.098 172.465 165.731 172.73 166.372C173.069 167.227 173.467 168.037 173.894 168.847C174.088 169.248 174.335 169.62 174.631 169.952L174.064 169.65C173.524 169.32 173.028 168.921 172.59 168.464C172.106 168.014 171.687 167.498 171.345 166.932C171.064 166.496 170.923 165.985 170.94 165.466Z" fill="white"/>
<path opacity="0.7" d="M172.782 163.205C174.019 163.941 176.465 163.978 180.362 163.102C184.259 162.225 186.432 161.12 187.25 159.941C187.451 159.584 187.506 159.162 187.403 158.765C187.3 158.368 187.047 158.027 186.697 157.812C186.37 157.67 186.029 157.559 185.681 157.481C185.049 157.342 184.404 157.28 183.758 157.297C183.485 157.297 183.22 157.297 182.948 157.297C180.111 157.371 177.325 158.057 174.778 159.308C174.265 159.548 173.773 159.829 173.305 160.148C173.061 160.323 172.83 160.515 172.612 160.722C172.436 160.884 172.298 161.083 172.209 161.305C172.121 161.527 172.083 161.766 172.099 162.004C172.115 162.243 172.185 162.475 172.303 162.682C172.422 162.89 172.585 163.069 172.782 163.205ZM173.202 162.741C173.305 162.388 173.495 162.066 173.754 161.805C173.925 161.634 174.107 161.474 174.299 161.326C174.64 161.074 175.003 160.853 175.382 160.663C175.961 160.377 176.559 160.131 177.172 159.927C177.776 159.713 178.344 159.543 178.962 159.389C179.581 159.234 179.986 159.168 180.568 159.072C181.3 158.953 182.038 158.879 182.778 158.851C183.518 158.817 184.259 158.864 184.988 158.991C185.612 159.084 186.201 159.338 186.697 159.728C186.697 159.728 186.697 159.728 186.66 159.772C186.618 159.824 186.571 159.874 186.52 159.919C186.399 160.042 186.269 160.155 186.13 160.258C185.591 160.65 185.011 160.981 184.399 161.245L183.972 161.429L183.736 161.525C183.283 161.71 182.82 161.872 182.351 162.011C181.894 162.159 181.437 162.284 180.966 162.387C180.605 162.468 180.229 162.571 179.883 162.645H179.809H179.773L179.603 162.682H179.566C179.088 162.77 178.609 162.836 178.093 162.903C177.577 162.969 177.231 163.028 176.797 163.065C176.362 163.102 175.787 163.065 175.323 163.065C174.753 163.06 174.185 162.996 173.629 162.873C173.463 162.855 173.303 162.797 173.165 162.704L173.202 162.741Z" fill="white"/>
<path d="M173.172 162.704C173.293 162.777 173.429 162.823 173.57 162.836C174.126 162.963 174.694 163.027 175.264 163.028C175.765 163.028 176.273 163.028 176.738 163.028C177.202 163.028 177.607 162.932 178.034 162.866C178.461 162.799 179.006 162.726 179.507 162.645L179.706 162.593C179.733 162.6 179.761 162.6 179.787 162.593L180.863 162.335C181.334 162.232 181.798 162.1 182.248 161.96C182.697 161.82 183.183 161.658 183.64 161.466L183.876 161.37C184.016 161.319 184.156 161.253 184.296 161.186C184.907 160.927 185.486 160.596 186.019 160.199C186.163 160.096 186.298 159.983 186.425 159.86L186.557 159.72C186.557 159.72 186.557 159.72 186.594 159.669C186.097 159.281 185.508 159.027 184.885 158.932C184.155 158.807 183.414 158.763 182.675 158.799C181.935 158.825 181.197 158.897 180.465 159.013C179.89 159.116 179.426 159.19 178.867 159.337C178.261 159.484 177.664 159.661 177.076 159.868C176.464 160.078 175.863 160.324 175.279 160.604C174.903 160.795 174.543 161.017 174.203 161.267C174.008 161.41 173.823 161.568 173.651 161.739C173.414 162.016 173.25 162.347 173.172 162.704Z" fill="#263238"/>
<path opacity="0.3" d="M172.922 161.496C173.023 161.322 173.141 161.159 173.275 161.009C173.82 160.398 175.095 159.403 177.872 158.49C178.817 158.175 179.792 157.958 180.782 157.842C182.479 157.571 184.216 157.681 185.865 158.166C186.051 158.246 186.229 158.345 186.395 158.461C186.578 158.584 186.707 158.771 186.759 158.985C186.811 159.199 186.781 159.424 186.675 159.617C186.628 159.679 186.576 159.738 186.52 159.794C184.767 158.578 180.819 159.175 179.53 159.418C178.24 159.661 174.439 160.892 173.378 162.763C173.303 162.74 173.232 162.708 173.165 162.667C172.985 162.538 172.86 162.345 172.815 162.129C172.77 161.912 172.808 161.686 172.922 161.496Z" fill="black"/>
<path d="M172.642 166.151C172.642 166.151 174.115 169.577 173.754 169.989L172.119 171.853C172.119 171.853 168.435 175.499 164.605 176.185C163.949 176.29 163.277 176.191 162.679 175.903C162.081 175.614 161.586 175.15 161.26 174.571L160.929 173.982C160.781 173.716 160.662 173.434 160.575 173.142C160.119 171.529 160.634 170.586 161.953 169.577L165.725 166.542C166.066 166.283 166.476 166.13 166.903 166.1L171.441 164.781C172.045 164.752 172.31 165.186 172.642 166.151Z" fill="#F7978D"/>
<path d="M158.925 171.691C159.803 172.241 160.5 173.038 160.929 173.982C161.665 175.544 162.49 177.496 162.49 177.496L164.104 176.023C164.104 176.023 163.595 173.253 162.203 171.86L160.811 170.468C160.234 170.95 159.601 171.361 158.925 171.691Z" fill="#FAC100"/>
<path opacity="0.9" d="M158.925 171.691C159.803 172.241 160.5 173.038 160.929 173.982C161.665 175.544 162.49 177.496 162.49 177.496L164.104 176.023C164.104 176.023 163.595 173.253 162.203 171.86L160.811 170.468C160.234 170.95 159.601 171.361 158.925 171.691Z" fill="white"/>
<path d="M156.973 110.814C157.159 110.539 157.252 110.213 157.241 109.882C157.229 109.551 157.112 109.232 156.907 108.972C156.523 108.533 156.033 108.201 155.483 108.006C154.934 107.811 154.343 107.761 153.769 107.86C152.236 109.105 154.807 109.989 155.426 110.696C155.839 111.13 156.627 111.44 156.973 110.814Z" fill="#F7978D"/>
<path d="M145.761 107.543C142.078 108.935 139.868 112.081 140.833 114.578C141.798 117.075 145.518 117.967 149.179 116.582C152.84 115.197 155.072 112.044 154.115 109.547C153.157 107.05 149.437 106.158 145.761 107.543ZM147.072 111.388C145.952 111.808 144.921 111.83 144.766 111.433C144.612 111.035 145.4 110.364 146.52 109.959C147.639 109.554 148.678 109.517 148.833 109.915C148.987 110.313 148.192 110.961 147.072 111.388Z" fill="#FAC100"/>
<path d="M142.019 115.389C142.218 115.249 142.218 114.947 142.365 114.748C142.474 114.634 142.617 114.559 142.772 114.532C142.927 114.506 143.086 114.53 143.227 114.6C143.501 114.751 143.766 114.916 144.023 115.094C144.487 115.329 145.023 115.378 145.523 115.232C146.022 115.085 146.447 114.754 146.711 114.306C146.785 114.14 146.882 113.987 146.999 113.849C147.367 113.473 147.993 113.672 148.524 113.716C148.959 113.74 149.392 113.64 149.774 113.429C150.155 113.218 150.47 112.904 150.682 112.523C150.781 112.274 150.923 112.045 151.102 111.845C151.544 111.47 152.229 111.691 152.767 111.492C153.033 111.362 153.265 111.17 153.441 110.931C153.616 110.692 153.732 110.415 153.776 110.121C153.85 109.819 153.894 109.51 153.953 109.208C152.804 106.998 149.26 106.261 145.761 107.543C142.77 108.678 140.744 110.991 140.604 113.156C140.573 113.64 140.643 114.124 140.811 114.578C140.908 114.814 141.029 115.038 141.172 115.249C141.257 115.31 141.348 115.362 141.444 115.403C141.534 115.449 141.633 115.471 141.733 115.469C141.834 115.466 141.932 115.439 142.019 115.389ZM146.52 109.937C147.647 109.51 148.678 109.495 148.833 109.893C148.988 110.291 148.192 110.961 147.072 111.366C145.953 111.772 144.921 111.808 144.767 111.411C144.612 111.013 145.4 110.365 146.52 109.937Z" fill="#263238"/>
<path d="M154.512 108.737V108.773C153.366 108.942 152.205 108.987 151.05 108.906C150.721 108.874 150.389 108.911 150.075 109.015C149.761 109.118 149.472 109.286 149.226 109.506C148.98 109.727 148.783 109.997 148.647 110.298C148.511 110.599 148.438 110.925 148.435 111.256V111.749C148.454 112.357 148.655 112.944 149.012 113.436C149.37 113.927 149.867 114.299 150.439 114.505L157.142 115.853L161.798 116.037L163.522 112.317L154.512 108.737Z" fill="#F7978D"/>
<path opacity="0.3" d="M174.417 129.267L176.546 132.759C178.134 135.386 180.507 137.448 183.331 138.652C184.51 138.74 185.693 138.522 186.763 138.018C188.053 137.223 174.417 129.267 174.417 129.267Z" fill="black"/>
<path d="M161.246 116.744C161.246 116.744 178.874 142.8 184.568 141.451C190.027 140.155 195.935 134.821 162.8 110.968L161.246 116.744Z" fill="#5767F4"/>
<path opacity="0.7" d="M161.246 116.744C161.246 116.744 178.874 142.8 184.568 141.451C190.027 140.155 195.935 134.821 162.8 110.968L161.246 116.744Z" fill="white"/>
<path d="M161.363 117.061C161.511 115.82 162.024 114.651 162.837 113.702C162.971 113.547 163.114 113.4 163.264 113.26C163.42 113.047 163.6 112.854 163.802 112.685C163.994 112.527 164.207 112.396 164.435 112.295L164.553 112.184L162.763 110.983C161.425 112.088 160.327 113.454 159.536 114.998C159.301 115.673 159.187 116.383 159.197 117.098C159.573 117.098 159.934 117.009 160.31 116.987C160.662 116.981 161.015 117.006 161.363 117.061Z" fill="#FAC100"/>
<path opacity="0.9" d="M161.363 117.061C161.511 115.82 162.024 114.651 162.837 113.702C162.971 113.547 163.114 113.4 163.264 113.26C163.42 113.047 163.6 112.854 163.802 112.685C163.994 112.527 164.207 112.396 164.435 112.295L164.553 112.184L162.763 110.983C161.425 112.088 160.327 113.454 159.536 114.998C159.301 115.673 159.187 116.383 159.197 117.098C159.573 117.098 159.934 117.009 160.31 116.987C160.662 116.981 161.015 117.006 161.363 117.061Z" fill="white"/>
<path opacity="0.2" d="M269.454 249.262L271.605 250.477L276.054 243.781L274.028 242.19L269.454 249.262Z" fill="black"/>
<path d="M274.374 241.659L268.886 250.131C268.886 250.131 245.313 245.07 218.992 220.082L219.073 219.633C203.957 223.316 161.009 222.919 153.982 215.316C150.335 211.247 148.044 206.145 147.425 200.716L171.426 192.878C171.426 192.878 205.253 196.362 221.717 204.296C238.999 210.867 274.374 241.659 274.374 241.659Z" fill="#FAC100"/>
<path d="M274.374 241.659L268.886 250.131C268.886 250.131 245.313 245.07 218.992 220.082L219.073 219.633C203.957 223.316 161.009 222.919 153.982 215.316C150.335 211.247 148.044 206.145 147.425 200.716L171.426 192.878C171.426 192.878 205.253 196.362 221.717 204.296C238.999 210.867 274.374 241.659 274.374 241.659Z" fill="#FAC100"/>
<path d="M274.374 241.659L268.886 250.131C268.886 250.131 245.313 245.07 218.992 220.083L219.073 219.633C203.957 223.317 161.01 222.919 153.982 215.316C150.336 211.247 148.045 206.145 147.426 200.716L171.426 192.878C171.426 192.878 205.254 196.362 221.718 204.296C239 210.867 274.374 241.659 274.374 241.659Z" fill="#333333"/>
<mask id="mask3_55_7917" style="mask-type:luminance" maskUnits="userSpaceOnUse" x="147" y="192" width="128" height="59">
<path d="M274.374 241.659L268.886 250.131C268.886 250.131 245.313 245.07 218.992 220.082L219.073 219.633C203.957 223.316 161.009 222.919 153.982 215.316C150.335 211.247 148.044 206.145 147.425 200.716L171.426 192.878C171.426 192.878 205.253 196.362 221.717 204.296C238.999 210.867 274.374 241.659 274.374 241.659Z" fill="white"/>
</mask>
<g mask="url(#mask3_55_7917)">
<path opacity="0.3" d="M222.874 223.648C230.378 228.861 238.381 233.317 246.764 236.952C254.952 240.335 263.341 243.209 271.884 245.556L274.403 241.659C274.403 241.659 209.29 212.981 222.874 223.648Z" fill="black"/>
</g>
<path d="M132.634 201.342C132.634 201.342 133.208 216.738 138.704 223.788L176.185 204.2L175.831 202.985C175.362 201.345 175.376 199.605 175.873 197.974C176.369 196.343 177.327 194.89 178.631 193.791C175.993 193.437 173.113 193.511 171.043 191.39C171.043 191.39 163.942 197.762 132.634 201.342Z" fill="#FAC100"/>
<path d="M132.634 201.342C132.634 201.342 133.208 216.738 138.704 223.788L176.185 204.2L175.831 202.985C175.362 201.345 175.376 199.605 175.873 197.974C176.369 196.343 177.327 194.89 178.631 193.791C175.993 193.437 173.113 193.511 171.043 191.39C171.043 191.39 163.942 197.762 132.634 201.342Z" fill="#1B1B1B"/>
<path d="M275.929 233.453L277.667 234.292L278.308 234.602L284.224 237.46L284.813 237.747L284.275 244.93L284.253 245.247L283.708 245.077L281.314 244.34L276.297 242.801L275.192 242.462L272.835 241.74L273.292 240.517L275.922 233.46L275.929 233.453Z" fill="#FFC3BD"/>
<mask id="mask4_55_7917" style="mask-type:luminance" maskUnits="userSpaceOnUse" x="272" y="233" width="13" height="13">
<path d="M275.929 233.453L277.667 234.292L278.308 234.602L284.224 237.46L284.813 237.747L284.275 244.93L284.253 245.247L283.708 245.077L281.314 244.34L276.297 242.801L275.192 242.462L272.835 241.74L273.292 240.517L275.922 233.46L275.929 233.453Z" fill="white"/>
</mask>
<g mask="url(#mask4_55_7917)">
<path opacity="0.2" d="M277.55 234.344L274.463 242.462L274.301 242.882L271.789 242.072L272.268 240.746L275.008 233.084L276.864 234.005L277.55 234.344Z" fill="black"/>
</g>
<path d="M298.014 231.456L297.123 233.187V233.261C296.983 233.504 296.651 234.145 296.209 234.977L295.797 235.714C295.583 236.112 295.362 236.547 295.119 236.989C294.957 237.298 294.802 237.593 294.64 237.88C294.294 238.536 293.977 239.154 293.675 239.744C291.767 243.515 291.222 245.033 289.763 248.046C289.592 248.396 289.289 248.664 288.92 248.791C288.551 248.918 288.147 248.894 287.796 248.724L282.544 245.711L281.564 245.129C281.498 245.089 281.44 245.036 281.394 244.973C281.348 244.911 281.315 244.84 281.297 244.765C281.278 244.689 281.275 244.611 281.287 244.535C281.298 244.458 281.325 244.385 281.365 244.318L284.312 237.445C284.955 236.642 285.724 235.948 286.588 235.39C289.284 234.057 291.443 233.526 295.738 228.023C296.6 226.837 299.635 228.252 298.014 231.456Z" fill="#263238"/>
<path opacity="0.2" d="M282.544 245.71C282.544 245.71 293.344 240.37 294.625 237.953C294.279 238.609 293.962 239.228 293.66 239.817C291.752 243.589 291.207 245.106 289.749 248.119C289.577 248.47 289.274 248.738 288.905 248.865C288.537 248.992 288.133 248.967 287.782 248.797L282.544 245.71Z" fill="black"/>
<path d="M276.157 232.834L275.929 233.453L273.292 240.554L272.835 241.777L272.452 242.808L269.888 241.998L254.632 237.158C243.582 235.176 222.845 223.684 222.845 223.684C208.178 230.852 155.75 239.235 146.837 233.033C142.181 229.684 138.682 224.97 136.825 219.544L146.999 214.034C160.658 206.739 175.912 202.943 191.397 202.984C202.926 202.984 215.921 203.566 224.51 205.592C243.685 208.421 276.157 232.834 276.157 232.834Z" fill="#FAC100"/>
<path d="M281.424 248.002L279.369 254.868L276.82 253.431L269.454 249.262L274.028 242.19L275.111 243.044L276.054 243.781L280.931 247.611L281.424 248.002Z" fill="#FFC3BD"/>
<mask id="mask5_55_7917" style="mask-type:luminance" maskUnits="userSpaceOnUse" x="269" y="242" width="13" height="13">
<path d="M281.424 248.002L279.369 254.867L276.82 253.431L269.453 249.261L274.028 242.189L275.111 243.044L276.054 243.781L280.931 247.611L281.424 248.002Z" fill="white"/>
</mask>
<g mask="url(#mask5_55_7917)">
<path opacity="0.2" d="M274.802 242.786L273.225 241.593L268.989 248.039L268.253 249.158L270.47 250.374L270.713 250.028L275.376 243.228L274.802 242.786Z" fill="black"/>
</g>
<path d="M295.001 244.856C292.842 247.508 290.758 249.836 289.196 251.751C286.647 254.875 285.822 256.171 283.855 258.669C283.622 258.958 283.285 259.145 282.916 259.189C282.547 259.233 282.176 259.131 281.881 258.904L276.85 254.219C276.746 254.116 276.688 253.975 276.688 253.829C276.688 253.682 276.746 253.542 276.85 253.438L280.953 247.633C281.72 247.021 282.581 246.536 283.502 246.197C286.286 245.497 288.4 245.46 293.52 241.232C293.796 241.043 294.133 240.964 294.464 241.01C294.795 241.056 295.097 241.225 295.31 241.482C295.944 242.123 296.209 243.376 295.001 244.856Z" fill="#263238"/>
<path d="M276.157 232.834L275.929 233.453L273.292 240.554L272.835 241.777L272.452 242.809L269.888 241.998L254.632 237.158C243.582 235.177 222.845 223.685 222.845 223.685C208.178 230.853 155.75 239.236 146.837 233.033C142.115 229.593 138.402 227.751 135.337 217.136C148.095 208.168 163.252 203.238 178.845 202.985C183.036 202.926 187.235 202.985 191.368 202.985C202.896 202.985 215.891 203.567 224.481 205.592C243.685 208.421 276.157 232.834 276.157 232.834Z" fill="#FAC100"/>
<path d="M276.157 232.834L275.928 233.453L273.291 240.554L272.834 241.777L272.451 242.808L269.888 241.998L254.632 237.158C243.582 235.177 222.845 223.685 222.845 223.685C208.178 230.852 155.75 239.236 146.836 233.033C142.114 229.593 138.401 227.751 135.337 217.136C148.095 208.168 163.252 203.238 178.844 202.985C183.036 202.926 187.235 202.985 191.367 202.985C202.896 202.985 215.891 203.567 224.48 205.592C243.685 208.421 276.157 232.834 276.157 232.834Z" fill="#1B1B1B"/>
<path opacity="0.3" d="M175.596 199.162C175.596 199.162 173.46 203.464 159.713 205.681C145.967 207.898 175.463 203.942 190.307 202.948C190.307 202.985 179.132 201.747 175.596 199.162Z" fill="black"/>
<g opacity="0.7">
<path d="M235.103 113.93C230.499 108.685 223.456 108.471 217.114 108.648C214.808 108.721 212.384 108.847 210.403 110.254C208.421 111.661 207.11 114.843 208.193 117.296C209.276 119.749 212.296 121.282 211.64 123.889C206.329 126.895 200.119 125.952 194.336 127.19C189.577 128.265 185.22 130.666 181.769 134.114C180.652 135.051 179.875 136.33 179.559 137.753C179.198 140.295 181.032 142.21 183.029 143.514C183.111 143.577 183.176 143.66 183.217 143.754C183.259 143.849 183.275 143.953 183.266 144.056C183.256 144.159 183.221 144.258 183.162 144.344C183.104 144.429 183.025 144.499 182.933 144.545C181.504 145.011 180.186 145.763 179.058 146.755C178.358 147.418 178.815 148.788 179.699 148.729H180.03C182.432 148.729 184.391 150.269 184.406 152.214C184.421 154.159 182.469 155.742 180.067 155.765C179.47 155.765 179.876 156.656 180.715 156.906C182.413 157.307 184.184 157.286 185.872 156.847C187.898 156.45 190.086 155.801 191.345 153.849C192.605 151.897 192.082 148.302 190.071 147.868C194.186 147.638 198.267 146.984 202.248 145.915C204.001 145.444 205.931 144.737 206.874 142.888C207.817 141.039 206.874 137.908 205.047 138.151C210.337 136.184 215.854 135.249 221.173 133.458C226.491 131.668 231.795 128.854 235.508 123.933C236.41 122.851 237.026 121.559 237.298 120.177C237.681 117.849 236.532 115.543 235.103 113.93Z" fill="#D4D6D7"/>
</g>
</g>
</g>
<defs>
<clipPath id="clip0_55_7917">
<rect width="368.33" height="368.33" fill="white" transform="translate(-14.3301 -14.33)"/>
</clipPath>
</defs>
</svg>
