<svg width="340" height="340" viewBox="0 0 340 340" fill="none" xmlns="http://www.w3.org/2000/svg">
<circle cx="170" cy="170" r="170" fill="#FFFBED"/>
<mask id="mask0_55_8309" style="mask-type:alpha" maskUnits="userSpaceOnUse" x="0" y="0" width="340" height="340">
<circle cx="170" cy="170" r="170" fill="#D9D9D9"/>
</mask>
<g mask="url(#mask0_55_8309)">
<path d="M54.9187 262.931V276.368H58.0183C57.8558 274.954 57.8558 273.526 58.0183 272.112C58.3128 270.532 61.68 266.453 61.5783 262.952L54.9187 262.931Z" fill="#EBEBEB"/>
<path d="M79.7156 262.931V276.368H82.8152C82.6527 274.954 82.6527 273.526 82.8152 272.112C83.1096 270.532 86.4769 266.453 86.3752 262.952L79.7156 262.931Z" fill="#E0E0E0"/>
<path d="M103.988 262.931V276.368H100.883C101.043 274.953 101.043 273.526 100.883 272.112C100.583 270.532 97.2213 266.453 97.3177 262.952L103.988 262.931Z" fill="#EBEBEB"/>
<path d="M125.445 262.931V276.368H122.345C122.505 274.953 122.505 273.526 122.345 272.112C122.051 270.532 118.683 266.453 118.785 262.952L125.445 262.931Z" fill="#E0E0E0"/>
<path d="M127.072 196.672H52.8096V263.359H127.072V196.672Z" fill="#F5F5F5"/>
<path d="M107.066 196.672L107.618 263.359H127.072V196.672H107.066Z" fill="#E0E0E0"/>
<path d="M103.828 201.581H56.1501V218.551H103.828V201.581Z" fill="#EBEBEB"/>
<path d="M103.828 221.929H56.1501V238.899H103.828V221.929Z" fill="#EBEBEB"/>
<path d="M103.828 242.282H56.1501V259.253H103.828V242.282Z" fill="#EBEBEB"/>
<path d="M74.4266 177.512L72.3708 196.597H98.7203L100.904 177.512H74.4266Z" fill="#E0E0E0"/>
<path d="M75.5134 178.882L73.5112 195.579H97.291L99.2129 178.882H75.5134Z" fill="white"/>
<path d="M79.5123 181.693L78.281 192.774H93.2866L94.0575 181.693H79.5123Z" fill="#EBEBEB"/>
<path d="M99.9622 185.729L105.407 196.672L98.7202 196.597L99.9622 185.729Z" fill="#EBEBEB"/>
<path d="M81.7341 210.949C81.7351 211.294 81.6337 211.632 81.4425 211.92C81.2514 212.208 80.9792 212.432 80.6604 212.565C80.3416 212.698 79.9906 212.734 79.6517 212.667C79.3128 212.6 79.0013 212.434 78.7567 212.19C78.5121 211.947 78.3454 211.636 78.2776 211.297C78.2098 210.958 78.2441 210.607 78.376 210.288C78.5079 209.969 78.7316 209.696 79.0187 209.504C79.3058 209.312 79.6435 209.209 79.9889 209.209C80.4508 209.209 80.8939 209.392 81.221 209.718C81.5482 210.045 81.7326 210.487 81.7341 210.949Z" fill="#E0E0E0"/>
<path d="M81.7338 231.506C81.7338 231.851 81.6315 232.189 81.4397 232.476C81.2479 232.763 80.9754 232.986 80.6565 233.119C80.3376 233.251 79.9867 233.285 79.6481 233.218C79.3096 233.15 78.9986 232.984 78.7546 232.74C78.5105 232.496 78.3443 232.185 78.2769 231.847C78.2096 231.508 78.2442 231.157 78.3763 230.838C78.5083 230.519 78.732 230.247 79.019 230.055C79.306 229.863 79.6434 229.761 79.9886 229.761C80.218 229.76 80.4453 229.805 80.6573 229.892C80.8694 229.98 81.062 230.108 81.2242 230.271C81.3864 230.433 81.515 230.625 81.6024 230.837C81.6899 231.05 81.7345 231.277 81.7338 231.506Z" fill="#E0E0E0"/>
<path d="M81.7338 252.058C81.7338 252.403 81.6315 252.74 81.4397 253.027C81.2479 253.314 80.9754 253.538 80.6565 253.67C80.3376 253.802 79.9867 253.837 79.6481 253.769C79.3096 253.702 78.9986 253.536 78.7546 253.292C78.5105 253.048 78.3443 252.737 78.2769 252.398C78.2096 252.06 78.2442 251.709 78.3763 251.39C78.5083 251.071 78.732 250.798 79.019 250.607C79.306 250.415 79.6434 250.312 79.9886 250.312C80.4515 250.312 80.8954 250.496 81.2227 250.824C81.55 251.151 81.7338 251.595 81.7338 252.058Z" fill="#E0E0E0"/>
<path d="M103.752 88.265L61.6479 87.8582L62.8203 142.731L104.925 142.886L103.752 88.265Z" fill="#E0E0E0"/>
<path d="M101.038 90.7118L64.1802 89.7589L65.2455 139.524L102.093 139.979L101.038 90.7118Z" fill="#FAFAFA"/>
<path d="M94.748 98.1474L70.2883 97.7405L71.0378 132.527L95.4707 132.002L94.748 98.1474Z" fill="#EBEBEB"/>
<path d="M71.0378 132.527L95.0906 114.133L70.2883 97.7405L71.0378 132.527Z" fill="#F5F5F5"/>
<path d="M284.938 59.662L247.995 59.3033L249.028 107.446L285.961 107.58L284.938 59.662Z" fill="#E0E0E0"/>
<path d="M282.551 61.8141L250.216 60.9736L251.153 104.631L283.477 105.027L282.551 61.8141Z" fill="#FAFAFA"/>
<path d="M277.031 68.3345L255.58 67.9758L256.233 98.4902L277.668 98.0352L277.031 68.3345Z" fill="#EBEBEB"/>
<path d="M256.233 98.4902L277.337 82.3551L255.58 67.9758L256.233 98.4902Z" fill="#F5F5F5"/>
<path d="M243.556 240.66C243.401 241.132 248.91 262.074 248.91 262.074L252.689 261.287L247.491 240.66H243.556Z" fill="#EBEBEB"/>
<path d="M272.845 237.668L265.286 262.074H269.697L276.94 239.402L272.845 237.668Z" fill="#F5F5F5"/>
<path d="M279.772 233.888L271.11 262.074H275.522L283.868 235.623L279.772 233.888Z" fill="#EBEBEB"/>
<path d="M246.233 260.345L250.644 275.618H272.845L276.94 260.345H246.233Z" fill="#E0E0E0"/>
<path d="M257.684 260.345C257.665 260.292 257.649 260.239 257.636 260.184L257.518 259.719C257.417 259.29 257.277 258.685 257.095 257.914L255.57 251.244L250.586 229.001L250.719 229.113H246.833L246.967 228.942C248.942 237.695 250.714 245.537 251.983 251.201C252.604 254.023 253.107 256.298 253.46 257.893C253.621 258.669 253.755 259.274 253.846 259.708C253.883 259.906 253.915 260.061 253.937 260.179C253.945 260.234 253.945 260.29 253.937 260.345C253.918 260.292 253.901 260.239 253.889 260.184C253.857 260.067 253.819 259.911 253.771 259.719C253.664 259.29 253.519 258.685 253.332 257.914C252.962 256.308 252.433 254.055 251.774 251.244C250.473 245.58 248.68 237.748 246.678 229.001L246.635 228.835H250.81L250.837 228.942C252.759 237.695 254.488 245.537 255.736 251.201C256.34 254.023 256.833 256.298 257.176 257.893C257.336 258.669 257.459 259.274 257.55 259.708L257.641 260.179C257.664 260.232 257.679 260.288 257.684 260.345Z" fill="#E0E0E0"/>
<path d="M279.382 276.255C279.382 276.33 228.556 276.394 165.89 276.394C103.223 276.394 52.3975 276.33 52.3975 276.255C52.3975 276.18 103.212 276.116 165.916 276.116C228.621 276.116 279.382 276.18 279.382 276.255Z" fill="#263238"/>
<path d="M264.767 130.14C264.645 130.088 264.517 130.048 264.387 130.022C264.005 129.936 263.608 129.936 263.225 130.022C262.605 130.181 262.029 130.478 261.539 130.889C260.872 131.466 260.295 132.139 259.826 132.886C258.728 134.567 257.867 136.89 256.86 139.599C255.695 142.692 254.688 145.842 253.841 149.037C253.683 149.332 253.473 149.595 253.22 149.813C253.089 149.932 252.935 150.021 252.767 150.075C252.598 150.129 252.421 150.145 252.245 150.124C251.902 150.036 251.591 149.85 251.351 149.588C251.1 149.358 250.864 149.112 250.629 148.86C250.164 148.349 249.669 147.867 249.146 147.415C248.64 146.929 247.968 146.655 247.267 146.649C246.916 146.709 246.582 146.842 246.286 147.04C245.99 147.237 245.738 147.494 245.548 147.795C245.168 148.445 244.964 149.183 244.954 149.936C244.863 151.468 245.307 153.015 245.575 154.615C245.843 156.216 246.18 157.859 246.491 159.535C246.651 160.376 246.806 161.221 246.967 162.078L247.208 163.373C247.281 163.6 247.306 163.839 247.279 164.076C247.252 164.312 247.175 164.54 247.053 164.744C246.972 164.851 246.861 164.932 246.734 164.975C246.607 165.018 246.47 165.021 246.341 164.985C246.109 164.918 245.893 164.807 245.704 164.658L244.633 163.845C243.904 163.294 243.147 162.783 242.363 162.313C241.579 161.825 240.722 161.464 239.826 161.243C239.382 161.138 238.92 161.138 238.477 161.243C238.035 161.354 237.645 161.615 237.374 161.982C236.859 162.776 236.606 163.712 236.651 164.658C236.653 165.632 236.748 166.604 236.935 167.56C237.321 169.525 237.867 171.455 238.568 173.331C238.771 173.81 238.927 174.309 239.033 174.819C239.059 174.964 239.055 175.112 239.02 175.254C238.986 175.397 238.923 175.531 238.835 175.649C238.788 175.704 238.736 175.756 238.68 175.804C238.619 175.859 238.548 175.901 238.471 175.927C238.308 175.952 238.142 175.913 238.005 175.82C237.561 175.535 237.146 175.205 236.769 174.835L235.623 173.764C234.873 173.038 234.058 172.382 233.187 171.805C232.754 171.52 232.279 171.303 231.779 171.163C231.542 171.089 231.292 171.067 231.046 171.097C230.799 171.128 230.562 171.21 230.35 171.339C229.937 171.639 229.649 172.082 229.542 172.581C229.413 173.092 229.348 173.617 229.349 174.144C229.354 175.227 229.489 176.306 229.75 177.357C230.279 179.492 231.061 181.557 232.079 183.508C233.093 185.507 234.25 187.431 235.543 189.263C236.19 190.192 236.887 191.085 237.631 191.939C238.348 192.828 239.076 193.711 239.804 194.616V194.648L239.676 194.594L243.08 194.102C244.209 193.968 245.329 193.775 246.437 193.524C248.621 193.032 250.768 192.387 252.861 191.591C254.926 190.828 256.894 189.823 258.723 188.599C259.621 188.004 260.443 187.301 261.17 186.506C261.528 186.116 261.835 185.682 262.085 185.215C262.34 184.774 262.424 184.253 262.321 183.754C262.252 183.515 262.132 183.293 261.971 183.104C261.809 182.914 261.609 182.762 261.384 182.656C260.918 182.429 260.422 182.27 259.912 182.185C258.879 182.029 257.834 181.966 256.79 181.998H255.227C254.69 182.019 254.152 181.985 253.621 181.896C253.457 181.875 253.307 181.791 253.204 181.661C253.165 181.588 253.141 181.508 253.134 181.425C253.126 181.352 253.126 181.279 253.134 181.206C253.15 181.061 253.195 180.92 253.266 180.792C253.337 180.665 253.432 180.552 253.546 180.462C253.968 180.156 254.418 179.893 254.89 179.675C256.672 178.759 258.374 177.697 259.981 176.5C260.759 175.92 261.476 175.264 262.122 174.541C262.791 173.872 263.233 173.011 263.386 172.078C263.431 171.624 263.317 171.168 263.065 170.788C262.809 170.411 262.468 170.099 262.069 169.878C261.262 169.434 260.389 169.121 259.483 168.952C258.588 168.771 257.684 168.641 256.774 168.561L255.425 168.432C255.185 168.419 254.949 168.355 254.735 168.245C254.615 168.183 254.517 168.087 254.453 167.969C254.389 167.85 254.362 167.715 254.376 167.581C254.425 167.349 254.523 167.13 254.662 166.939C254.801 166.747 254.979 166.586 255.184 166.468L256.255 165.675L258.316 164.107L262.299 161.082C263.579 160.081 264.944 159.235 265.907 158.036C266.4 157.476 266.74 156.797 266.892 156.066C266.955 155.715 266.942 155.355 266.855 155.009C266.768 154.663 266.61 154.339 266.389 154.059C266.155 153.8 265.853 153.614 265.517 153.523C265.181 153.423 264.833 153.366 264.483 153.352C263.794 153.334 263.103 153.359 262.417 153.427C262.074 153.427 261.732 153.475 261.394 153.48C261.043 153.507 260.692 153.43 260.383 153.261C260.235 153.161 260.111 153.03 260.018 152.878C259.926 152.725 259.868 152.555 259.847 152.378C259.808 152.045 259.828 151.708 259.906 151.382C261.438 148.479 262.823 145.5 264.055 142.458C265.126 139.781 266.052 137.479 266.384 135.498C266.546 134.634 266.582 133.75 266.491 132.875C266.421 132.239 266.207 131.627 265.864 131.087C265.657 130.757 265.375 130.48 265.04 130.279C264.926 130.209 264.806 130.15 264.681 130.102C264.811 130.137 264.935 130.189 265.051 130.257C265.395 130.454 265.689 130.729 265.907 131.06C266.257 131.605 266.478 132.222 266.555 132.864C266.659 133.747 266.632 134.64 266.475 135.514C266.154 137.5 265.244 139.797 264.178 142.474C262.972 145.551 261.611 148.566 260.099 151.505C260.025 151.806 260.007 152.118 260.045 152.426C260.06 152.577 260.107 152.724 260.182 152.856C260.258 152.988 260.361 153.102 260.484 153.191C260.764 153.339 261.079 153.404 261.394 153.379C261.726 153.379 262.064 153.347 262.406 153.32C263.102 153.25 263.801 153.223 264.499 153.239C264.862 153.254 265.222 153.313 265.57 153.416C265.938 153.514 266.272 153.712 266.534 153.989C266.767 154.289 266.935 154.634 267.027 155.003C267.12 155.372 267.134 155.756 267.069 156.13C266.913 156.897 266.559 157.61 266.041 158.197C265.051 159.428 263.675 160.285 262.406 161.291L258.429 164.321L256.373 165.884L255.329 166.682C255.153 166.8 254.993 166.94 254.853 167.099C254.724 167.252 254.639 167.437 254.606 167.635C254.597 167.724 254.615 167.814 254.658 167.892C254.701 167.97 254.767 168.034 254.847 168.074C255.036 168.165 255.242 168.218 255.452 168.229L256.801 168.357C257.718 168.435 258.63 168.566 259.531 168.748C260.468 168.921 261.371 169.241 262.208 169.696C262.635 169.941 263.001 170.28 263.279 170.686C263.558 171.112 263.686 171.619 263.643 172.126C263.484 173.113 263.022 174.026 262.321 174.739C261.656 175.474 260.92 176.143 260.126 176.736C258.508 177.944 256.795 179.019 255.002 179.948C254.547 180.154 254.113 180.405 253.707 180.697C253.618 180.765 253.544 180.851 253.489 180.948C253.433 181.046 253.398 181.153 253.386 181.265C253.38 181.318 253.38 181.372 253.386 181.425C253.386 181.468 253.386 181.57 253.423 181.564C253.492 181.626 253.578 181.665 253.669 181.677C254.172 181.758 254.681 181.79 255.19 181.773H256.753C257.813 181.735 258.874 181.797 259.922 181.96C260.462 182.045 260.986 182.213 261.475 182.458C261.733 182.582 261.962 182.759 262.147 182.978C262.331 183.196 262.467 183.452 262.545 183.727C262.667 184.29 262.575 184.877 262.288 185.376C262.03 185.863 261.71 186.314 261.336 186.72C260.595 187.533 259.757 188.252 258.841 188.861C256.995 190.102 255.007 191.118 252.92 191.886C250.81 192.69 248.646 193.342 246.442 193.834C245.331 194.086 244.207 194.279 243.075 194.412L239.665 194.91H239.585L239.536 194.846H239.51L237.336 192.169C236.593 191.314 235.894 190.421 235.243 189.493C233.94 187.647 232.774 185.71 231.753 183.695C230.73 181.723 229.944 179.637 229.413 177.48C229.142 176.414 229.004 175.319 229.001 174.219C229.002 173.667 229.07 173.117 229.204 172.581C229.331 172.02 229.658 171.525 230.125 171.189C230.369 171.039 230.642 170.942 230.927 170.905C231.211 170.868 231.5 170.892 231.774 170.975C232.298 171.124 232.796 171.351 233.252 171.65C234.136 172.235 234.964 172.902 235.725 173.641L236.87 174.712C237.235 175.066 237.633 175.383 238.059 175.66C238.135 175.715 238.227 175.744 238.321 175.745C238.321 175.745 238.402 175.697 238.439 175.67L238.557 175.552C238.622 175.462 238.667 175.36 238.691 175.251C238.715 175.142 238.717 175.03 238.696 174.921C238.594 174.43 238.444 173.952 238.246 173.491C237.542 171.601 236.995 169.657 236.608 167.678C236.418 166.706 236.323 165.718 236.324 164.728C236.282 163.727 236.555 162.738 237.106 161.901C237.411 161.495 237.845 161.204 238.337 161.077C238.818 160.965 239.318 160.965 239.799 161.077C240.719 161.294 241.599 161.656 242.406 162.148C243.199 162.618 243.964 163.135 244.697 163.695L245.768 164.508C245.927 164.638 246.109 164.737 246.303 164.803C246.389 164.828 246.481 164.826 246.567 164.797C246.652 164.769 246.726 164.715 246.78 164.642C246.885 164.483 246.946 164.298 246.956 164.107C246.962 163.894 246.938 163.682 246.887 163.475C246.806 163.042 246.731 162.613 246.651 162.185C246.491 161.328 246.335 160.477 246.18 159.642C245.875 157.961 245.57 156.323 245.275 154.722C244.981 153.122 244.569 151.569 244.66 149.99C244.675 149.207 244.893 148.442 245.291 147.768C245.498 147.442 245.771 147.164 246.093 146.952C246.415 146.739 246.779 146.598 247.16 146.537C247.539 146.506 247.919 146.582 248.257 146.757C248.586 146.916 248.893 147.115 249.173 147.351C249.702 147.808 250.203 148.298 250.672 148.818C250.9 149.067 251.136 149.308 251.378 149.54C251.596 149.771 251.874 149.936 252.181 150.017C252.333 150.034 252.486 150.018 252.631 149.971C252.776 149.924 252.909 149.846 253.022 149.744C253.256 149.541 253.452 149.298 253.6 149.026C254.457 145.826 255.48 142.672 256.662 139.578C257.679 136.874 258.557 134.545 259.676 132.864C260.154 132.114 260.743 131.439 261.421 130.862C261.921 130.448 262.509 130.155 263.14 130.006C263.527 129.914 263.93 129.914 264.317 130.006C264.474 130.024 264.626 130.07 264.767 130.14Z" fill="#263238"/>
<path d="M261.957 137.42C261.947 137.481 261.929 137.541 261.903 137.597L261.721 138.1C261.545 138.555 261.298 139.203 260.988 140.022C260.335 141.708 259.408 144.123 258.263 147.094L249.371 170.456C245.913 179.557 242.743 187.839 240.399 193.792C239.232 196.768 238.257 199.172 237.593 200.831C237.261 201.645 236.999 202.282 236.812 202.732C236.721 202.941 236.657 203.101 236.603 203.23L236.523 203.39C236.532 203.331 236.55 203.273 236.576 203.219C236.619 203.09 236.683 202.924 236.758 202.716C236.935 202.255 237.181 201.613 237.492 200.788C238.145 199.102 239.071 196.693 240.217 193.722L249.109 170.37C252.567 161.243 255.731 152.993 258.081 147.04C259.248 144.064 260.222 141.655 260.886 140.001C261.218 139.187 261.48 138.545 261.668 138.095C261.759 137.891 261.823 137.725 261.876 137.602L261.957 137.42Z" fill="#263238"/>
<path d="M262.245 155.916C261.823 156.219 261.375 156.486 260.907 156.714L257.631 158.534C256.346 159.246 255.179 159.883 254.317 160.317C253.864 160.574 253.385 160.782 252.888 160.938C253.314 160.64 253.761 160.374 254.226 160.14L257.492 158.293C258.776 157.581 259.949 156.96 260.816 156.537C261.272 156.285 261.75 156.077 262.245 155.916Z" fill="#263238"/>
<path d="M252.454 160.595C252.385 160.627 251.111 158.197 249.612 155.167C248.113 152.137 246.935 149.653 247.015 149.615C247.096 149.578 248.359 152.014 249.863 155.044C251.368 158.074 252.524 160.558 252.454 160.595Z" fill="#263238"/>
<path d="M247.775 174.851C247.347 174.535 246.953 174.176 246.597 173.781C245.902 173.085 244.991 172.094 244.001 170.949C243.011 169.803 242.208 168.722 241.64 167.919C241.307 167.504 241.018 167.056 240.778 166.58C241.146 166.963 241.486 167.37 241.795 167.801C242.406 168.572 243.246 169.626 244.215 170.767C245.184 171.907 246.084 172.908 246.737 173.642C247.113 174.018 247.46 174.423 247.775 174.851Z" fill="#263238"/>
<path d="M257.567 172.549C257.11 172.732 256.637 172.872 256.153 172.967C255.276 173.186 254.055 173.47 252.706 173.77C251.357 174.07 250.126 174.305 249.237 174.498C248.76 174.618 248.272 174.692 247.781 174.717C248.238 174.536 248.711 174.398 249.194 174.305C250.072 174.086 251.293 173.77 252.647 173.497C254.001 173.224 255.222 172.962 256.111 172.774C256.588 172.655 257.076 172.579 257.567 172.549Z" fill="#263238"/>
<path d="M255.035 185.665C254.44 185.871 253.832 186.034 253.214 186.152C252.08 186.415 250.538 186.763 248.782 187.127C247.026 187.491 245.468 187.812 244.328 188.026C243.717 188.172 243.096 188.27 242.47 188.32C243.064 188.113 243.672 187.95 244.29 187.833C245.42 187.571 246.967 187.223 248.723 186.859C250.479 186.495 252.031 186.174 253.172 185.96C253.784 185.814 254.407 185.715 255.035 185.665Z" fill="#263238"/>
<path d="M242.748 188.17C242.599 188.067 242.464 187.945 242.347 187.806C242.101 187.56 241.758 187.196 241.335 186.736C240.495 185.815 239.365 184.514 238.177 183.031C236.988 181.548 235.966 180.156 235.254 179.134C234.895 178.625 234.617 178.208 234.429 177.913C234.318 177.768 234.227 177.608 234.162 177.437C234.296 177.559 234.414 177.698 234.515 177.849L235.414 179.021C236.164 180.012 237.208 181.377 238.396 182.854C239.585 184.332 240.682 185.654 241.485 186.602C241.94 187.096 242.362 187.62 242.748 188.17Z" fill="#263238"/>
<path d="M237.395 224.033C228.102 216.538 226.752 203.728 227.919 192.373C228.118 190.478 228.043 188.46 229.06 186.854C230.077 185.248 232.272 184.257 233.915 185.173C235.28 185.933 235.778 187.619 236.474 189.027C237.406 190.909 238.849 192.49 240.639 193.588C241.806 194.3 243.278 194.787 244.515 194.209C246.217 193.417 246.565 191.168 246.683 189.279L247.342 178.711C247.459 176.816 247.588 174.889 248.3 173.138C249.012 171.388 250.441 169.808 252.256 169.423C254.071 169.038 256.239 170.237 256.491 172.1C256.508 172.886 256.472 173.673 256.384 174.455C256.384 175.242 256.689 176.136 257.417 176.404C258.145 176.671 258.948 176.195 259.558 175.681C261.641 173.909 263.129 171.543 264.537 169.182C265.945 166.821 267.31 164.401 269.226 162.442C271.143 160.483 273.696 159 276.416 159.032C279.135 159.064 281.898 160.932 282.401 163.636C282.904 166.339 281.164 168.946 279.323 170.986C276.589 174.019 273.429 176.639 269.944 178.765C269.263 179.072 268.7 179.59 268.338 180.242C267.84 181.473 268.948 182.806 270.163 183.31C271.539 183.872 273.081 183.845 274.542 184.107C276.004 184.37 277.556 185.141 278.017 186.57C278.659 188.556 276.903 190.467 275.222 191.688C271.872 194.123 268.129 195.966 264.157 197.138C262.727 197.55 261.234 197.892 260.045 198.792C258.857 199.691 258.064 201.345 258.653 202.721C259.242 204.097 260.95 204.648 262.401 204.477C263.852 204.306 265.233 203.604 266.657 203.176C269.333 202.373 272.663 202.785 274.151 205.141C275.142 206.693 275.099 208.754 274.424 210.494C273.672 212.184 272.589 213.705 271.239 214.97C266.785 219.632 261.173 223.028 254.976 224.809C248.808 226.485 243.198 226.667 237.352 224.065" fill="#FAC100"/>
<g opacity="0.1">
<path d="M237.395 224.033C228.102 216.538 226.752 203.728 227.919 192.373C228.118 190.478 228.043 188.46 229.06 186.854C230.077 185.248 232.272 184.257 233.915 185.173C235.28 185.933 235.778 187.619 236.474 189.027C237.406 190.909 238.849 192.49 240.639 193.588C241.806 194.3 243.278 194.787 244.515 194.209C246.217 193.417 246.565 191.168 246.683 189.279L247.342 178.711C247.459 176.816 247.588 174.889 248.3 173.138C249.012 171.388 250.441 169.808 252.256 169.423C254.071 169.038 256.239 170.237 256.491 172.1C256.508 172.886 256.472 173.673 256.384 174.455C256.384 175.242 256.689 176.136 257.417 176.404C258.145 176.671 258.948 176.195 259.558 175.681C261.641 173.909 263.129 171.543 264.537 169.182C265.945 166.821 267.31 164.401 269.226 162.442C271.143 160.483 273.696 159 276.416 159.032C279.135 159.064 281.898 160.932 282.401 163.636C282.904 166.339 281.164 168.946 279.323 170.986C276.589 174.019 273.429 176.639 269.944 178.765C269.263 179.072 268.7 179.59 268.338 180.242C267.84 181.473 268.948 182.806 270.163 183.31C271.539 183.872 273.081 183.845 274.542 184.107C276.004 184.37 277.556 185.141 278.017 186.57C278.659 188.556 276.903 190.467 275.222 191.688C271.872 194.123 268.129 195.966 264.157 197.138C262.727 197.55 261.234 197.892 260.045 198.792C258.857 199.691 258.064 201.345 258.653 202.721C259.242 204.097 260.95 204.648 262.401 204.477C263.852 204.306 265.233 203.604 266.657 203.176C269.333 202.373 272.663 202.785 274.151 205.141C275.142 206.693 275.099 208.754 274.424 210.494C273.672 212.184 272.589 213.705 271.239 214.97C266.785 219.632 261.173 223.028 254.976 224.809C248.808 226.485 243.198 226.667 237.352 224.065" fill="#FAC100"/>
</g>
<path d="M236.667 232.47C237.559 227.229 238.95 222.086 240.821 217.111C243.137 211.041 245.798 205.109 248.792 199.343L251.121 194.793C251.892 193.299 252.652 191.821 253.487 190.419C255.095 187.734 256.848 185.139 258.739 182.646C260.532 180.253 262.315 178.047 264.001 175.997C265.688 173.946 267.305 172.073 268.846 170.424C271.268 167.81 273.892 165.392 276.694 163.191C277.685 162.415 278.472 161.837 279.012 161.452L279.628 161.018C279.696 160.966 279.767 160.92 279.842 160.879C279.786 160.943 279.721 160.999 279.649 161.045L279.055 161.51C278.52 161.912 277.754 162.506 276.78 163.304C274.017 165.537 271.426 167.974 269.028 170.595C267.503 172.249 265.902 174.134 264.21 176.184C262.519 178.234 260.757 180.467 258.98 182.844C257.099 185.329 255.358 187.917 253.766 190.596C252.936 191.993 252.16 193.46 251.416 194.953L249.087 199.504C246.101 205.258 243.436 211.174 241.105 217.223C239.228 222.178 237.817 227.296 236.892 232.513" fill="#263238"/>
<path d="M253.589 190.403C253.514 190.136 253.469 189.861 253.455 189.584C253.396 189.048 253.327 188.288 253.257 187.335C253.123 185.44 253.022 182.806 252.92 179.91C252.818 177.014 252.679 174.385 252.513 172.49C252.433 171.548 252.363 170.783 252.304 170.253C252.256 169.979 252.24 169.7 252.256 169.423C252.343 169.686 252.404 169.956 252.438 170.231C252.534 170.767 252.647 171.521 252.759 172.469C252.989 174.359 253.166 176.987 253.295 179.894C253.423 182.801 253.471 185.344 253.53 187.325C253.568 188.219 253.594 188.968 253.621 189.573C253.637 189.85 253.626 190.128 253.589 190.403Z" fill="#263238"/>
<path d="M278.193 187.528C277.869 187.579 277.541 187.597 277.214 187.582C276.587 187.582 275.683 187.582 274.537 187.657C272.299 187.748 269.183 187.972 265.805 188.379C262.427 188.786 259.344 189.284 257.138 189.712C256.036 189.916 255.147 190.108 254.531 190.248C254.216 190.331 253.893 190.387 253.568 190.414C253.869 190.286 254.18 190.186 254.499 190.114C255.104 189.942 255.987 189.718 257.09 189.477C259.285 188.99 262.353 188.449 265.763 188.037C268.673 187.681 271.6 187.476 274.532 187.421C275.656 187.421 276.566 187.421 277.208 187.453C277.538 187.449 277.868 187.474 278.193 187.528Z" fill="#263238"/>
<path d="M241.153 216.672C241.09 216.578 241.041 216.475 241.009 216.367L240.65 215.457C240.345 214.67 239.933 213.513 239.445 212.084C238.466 209.22 237.234 205.221 235.934 200.794C234.633 196.366 233.444 192.357 232.523 189.477C232.074 188.074 231.699 186.923 231.426 186.067L231.132 185.14C231.09 185.034 231.063 184.922 231.051 184.808C231.112 184.904 231.161 185.006 231.196 185.114C231.292 185.36 231.41 185.649 231.549 186.024C231.854 186.811 232.266 187.967 232.759 189.396C233.739 192.26 234.97 196.259 236.265 200.692C237.561 205.125 238.76 209.124 239.681 212.004C240.131 213.406 240.5 214.557 240.752 215.414L241.046 216.34C241.097 216.445 241.133 216.557 241.153 216.672Z" fill="#263238"/>
<path d="M274.152 208.481C274.048 208.537 273.936 208.575 273.82 208.594L272.862 208.845L269.328 209.729C266.341 210.473 262.235 211.549 257.695 212.748C253.156 213.947 249.034 214.986 246.03 215.671C244.531 216.014 243.316 216.281 242.47 216.447L241.496 216.635C241.384 216.663 241.269 216.675 241.153 216.672C241.257 216.623 241.367 216.587 241.48 216.565L242.443 216.313L245.977 215.43C248.959 214.686 253.07 213.605 257.61 212.405C262.149 211.206 266.271 210.168 269.269 209.483C270.768 209.14 271.989 208.878 272.829 208.712L273.804 208.524C273.918 208.497 274.034 208.482 274.152 208.481Z" fill="#263238"/>
<path d="M239.558 76.2523H109.732V254.146H239.558V76.2523Z" fill="#455A64"/>
<path d="M234.424 243.567H210.382H120.546V83.4417H234.424V223.647V243.567Z" fill="#E0E0E0"/>
<path d="M232.625 240.596H208.797H119.77V81.3273H232.625V220.783V240.596Z" fill="#EBEBEB"/>
<path d="M220.5 228.203L207.502 238.787H117.666V81.7288H231.544V219.247L220.5 228.203Z" fill="#FAFAFA"/>
<path d="M220.5 228.187C220.5 228.187 220.73 227.989 221.195 227.609L223.278 225.907L231.517 219.199V219.231C231.517 196.64 231.474 146.425 231.437 81.7127L231.56 81.8412H118.672H117.682L117.821 81.702C117.821 140.75 117.821 195.221 117.789 238.76L117.682 238.648L207.518 238.712H207.485L217.25 230.794L219.697 228.819C220.232 228.38 220.516 228.166 220.516 228.166L219.713 228.835L217.266 230.864L207.534 238.819L117.666 238.894H117.554V238.781C117.554 195.242 117.554 140.771 117.527 81.7234V81.5842H118.656H231.544H231.672V81.7074C231.635 146.441 231.602 196.634 231.592 219.226L223.321 225.901L221.228 227.652L220.5 228.187Z" fill="#263238"/>
<path d="M159.241 70.7543H190.371C192.38 70.7543 194.307 71.5524 195.727 72.973C197.148 74.3936 197.946 76.3203 197.946 78.3293V86.7288H151.339V78.6505C151.341 76.5558 152.174 74.5474 153.655 73.0667C155.137 71.586 157.146 70.7543 159.241 70.7543Z" fill="#2A2A2A"/>
<path d="M162.758 70.7543L161.055 62.1353H187.892L186.398 70.7543H162.758Z" fill="#2A2A2A"/>
<path d="M148.759 125.937H129.577V106.75H148.759V125.937ZM130.113 125.402H148.223V107.286H130.113V125.402Z" fill="#2A2A2A"/>
<path d="M216.559 111.387C216.559 111.462 203.203 111.526 186.736 111.526C170.269 111.526 156.906 111.462 156.906 111.387C156.906 111.312 170.258 111.247 186.736 111.247C203.213 111.247 216.559 111.306 216.559 111.387Z" fill="#263238"/>
<path d="M216.559 115.37C216.559 115.45 203.203 115.509 186.736 115.509C170.269 115.509 156.906 115.45 156.906 115.37C156.906 115.289 170.258 115.23 186.736 115.23C203.213 115.23 216.559 115.295 216.559 115.37Z" fill="#263238"/>
<path d="M216.56 119.358C216.56 119.433 203.203 119.497 186.736 119.497C170.269 119.497 156.907 119.433 156.907 119.358C156.907 119.283 170.258 119.218 186.736 119.218C203.214 119.218 216.56 119.283 216.56 119.358Z" fill="#263238"/>
<path d="M216.559 123.346C216.559 123.421 203.203 123.485 186.736 123.485C170.269 123.485 156.906 123.421 156.906 123.346C156.906 123.271 170.258 123.207 186.736 123.207C203.213 123.207 216.559 123.26 216.559 123.346Z" fill="#263238"/>
<path d="M148.759 155.504H129.577V136.317H148.759V155.504ZM130.113 154.968H148.223V136.853H130.113V154.968Z" fill="#2A2A2A"/>
<path d="M133.389 146.307L135.937 143.571L140.183 146.965L149.899 137.532L152.228 140.279L139.995 152.345L133.389 146.307Z" fill="#FAC100"/>
<path d="M216.559 140.953C216.559 141.028 203.203 141.093 186.736 141.093C170.269 141.093 156.906 141.028 156.906 140.953C156.906 140.878 170.258 140.814 186.736 140.814C203.213 140.814 216.559 140.878 216.559 140.953Z" fill="#263238"/>
<path d="M216.56 144.942C216.56 145.017 203.203 145.081 186.736 145.081C170.269 145.081 156.907 145.017 156.907 144.942C156.907 144.867 170.258 144.802 186.736 144.802C203.214 144.802 216.56 144.861 216.56 144.942Z" fill="#263238"/>
<path d="M216.56 148.924C216.56 149.005 203.203 149.064 186.736 149.064C170.269 149.064 156.907 149.005 156.907 148.924C156.907 148.844 170.258 148.785 186.736 148.785C203.214 148.785 216.56 148.85 216.56 148.924Z" fill="#263238"/>
<path d="M216.559 152.913C216.559 152.988 203.203 153.052 186.736 153.052C170.269 153.052 156.906 152.988 156.906 152.913C156.906 152.838 170.258 152.774 186.736 152.774C203.213 152.774 216.559 152.838 216.559 152.913Z" fill="#263238"/>
<path d="M148.759 184.118H129.577V164.931H148.759V184.118ZM130.113 183.583H148.223V165.467H130.113V183.583Z" fill="#2A2A2A"/>
<path d="M133.389 174.921L135.937 172.185L140.183 175.579L149.899 166.147L152.228 168.893L139.995 180.959L133.389 174.921Z" fill="#FAC100"/>
<path d="M216.56 169.567C216.56 169.642 203.203 169.706 186.736 169.706C170.269 169.706 156.907 169.642 156.907 169.567C156.907 169.492 170.258 169.428 186.736 169.428C203.214 169.428 216.56 169.487 216.56 169.567Z" fill="#263238"/>
<path d="M216.56 173.55C216.56 173.63 203.203 173.689 186.736 173.689C170.269 173.689 156.907 173.63 156.907 173.55C156.907 173.47 170.258 173.411 186.736 173.411C203.214 173.411 216.56 173.475 216.56 173.55Z" fill="#263238"/>
<path d="M216.559 177.539C216.559 177.619 203.203 177.678 186.736 177.678C170.269 177.678 156.906 177.619 156.906 177.539C156.906 177.458 170.258 177.399 186.736 177.399C203.213 177.399 216.559 177.464 216.559 177.539Z" fill="#263238"/>
<path d="M216.56 181.527C216.56 181.602 203.203 181.666 186.736 181.666C170.269 181.666 156.907 181.602 156.907 181.527C156.907 181.452 170.258 181.387 186.736 181.387C203.214 181.387 216.56 181.452 216.56 181.527Z" fill="#263238"/>
<path d="M148.759 211.747H129.577V192.56H148.759V211.747ZM130.113 211.211H148.223V193.095H130.113V211.211Z" fill="#2A2A2A"/>
<path d="M133.389 202.549L135.937 199.814L140.183 203.208L149.899 193.775L152.228 196.516L139.995 208.583L133.389 202.549Z" fill="#FAC100"/>
<path d="M216.559 197.191C216.559 197.271 203.203 197.33 186.736 197.33C170.269 197.33 156.906 197.271 156.906 197.191C156.906 197.111 170.258 197.052 186.736 197.052C203.213 197.052 216.559 197.137 216.559 197.191Z" fill="#263238"/>
<path d="M216.559 201.179C216.559 201.254 203.203 201.318 186.736 201.318C170.269 201.318 156.906 201.254 156.906 201.179C156.906 201.104 170.258 201.04 186.736 201.04C203.213 201.04 216.559 201.104 216.559 201.179Z" fill="#263238"/>
<path d="M216.56 205.167C216.56 205.242 203.203 205.307 186.736 205.307C170.269 205.307 156.907 205.242 156.907 205.167C156.907 205.092 170.258 205.028 186.736 205.028C203.214 205.028 216.56 205.087 216.56 205.167Z" fill="#263238"/>
<path d="M216.56 209.15C216.56 209.231 203.203 209.289 186.736 209.289C170.269 209.289 156.907 209.231 156.907 209.15C156.907 209.07 170.258 209.011 186.736 209.011C203.214 209.011 216.56 209.075 216.56 209.15Z" fill="#263238"/>
<path d="M211.072 212.785L198.588 238.642H207.502L211.072 212.785Z" fill="#E0E0E0"/>
<path d="M207.501 238.787L211.072 212.93L231.544 219.247L207.501 238.787Z" fill="#FAFAFA"/>
<path d="M207.501 238.787L214.386 233.117L231.458 219.14L231.506 219.375L223.599 216.945L211.056 213.053L211.222 212.946C210.151 220.441 209.236 226.891 208.588 231.463C207.94 235.912 207.609 238.208 207.518 238.787C207.515 238.747 207.515 238.708 207.518 238.669L207.566 238.316C207.609 237.978 207.667 237.507 207.748 236.908C207.914 235.65 208.149 233.845 208.449 231.554C209.07 226.945 209.937 220.462 210.949 212.887V212.737L211.094 212.78L223.669 216.656L231.57 219.097L231.817 219.172L231.619 219.332C224.707 224.905 218.663 229.777 214.338 233.251L209.29 237.304L207.94 238.374L207.598 238.647L207.501 238.787Z" fill="#263238"/>
<g opacity="0.3">
<path d="M186.034 62.1353L184.557 70.7543H186.398L187.892 62.1353H185.542" fill="black"/>
</g>
<path d="M107.431 153.036C108.076 153.085 108.725 153.003 109.338 152.795C109.951 152.588 110.516 152.259 110.999 151.828C111.482 151.397 111.874 150.874 112.15 150.288C112.426 149.703 112.582 149.068 112.607 148.421C112.709 145.798 112.8 143.148 112.8 143.148C112.8 143.148 116.772 142.779 117.083 138.866C117.393 134.952 117.238 125.862 117.238 125.862C115.06 124.764 112.629 124.267 110.195 124.423C107.761 124.579 105.413 125.383 103.394 126.751L103.635 140.584V148.031C103.64 150.504 104.941 152.849 107.431 153.036Z" fill="#FFBE9D"/>
<path d="M113.143 134.047C112.853 133.63 112.416 133.338 111.92 133.229C111.424 133.12 110.904 133.202 110.466 133.459C110.021 133.768 109.7 134.225 109.561 134.748C109.422 135.272 109.473 135.828 109.706 136.317C109.909 136.68 110.185 136.997 110.516 137.248C110.848 137.499 111.228 137.678 111.633 137.773C111.992 137.851 112.31 138.058 112.528 138.353C112.745 138.649 112.848 139.014 112.816 139.379C112.651 140.413 112.169 141.369 111.435 142.115C110.222 143.349 108.608 144.109 106.885 144.256C105.209 144.455 103.292 144.107 102.318 142.731C101.606 141.73 101.558 140.418 101.531 139.192C101.471 136.294 101.41 133.396 101.349 130.498C101.286 129.454 101.353 128.405 101.547 127.377C101.752 126.34 102.341 125.419 103.196 124.797C104.154 124.165 105.364 124.112 106.451 123.764C107.816 123.319 108.972 122.42 110.247 121.767C111.521 121.114 113.078 120.723 114.358 121.365C115.279 121.826 115.894 122.741 116.783 123.25C118.057 123.972 119.786 123.785 120.402 125.68C120.619 126.328 120.619 127.029 120.402 127.677C119.54 130.22 116.392 131.248 114.122 130.15C114.08 130.578 114.502 131.537 114.047 132.897C113.903 133.335 113.855 133.994 113.175 134.01" fill="#263238"/>
<path d="M102.291 125.937C102.915 124.694 103.342 123.361 103.555 121.986C103.656 121.298 103.597 120.595 103.382 119.933C103.168 119.271 102.804 118.668 102.318 118.169C101.602 117.547 100.676 117.22 99.7272 117.254C98.8262 117.305 97.9631 117.634 97.2559 118.194C96.5487 118.755 96.032 119.52 95.7764 120.386C95.5559 121.258 95.5899 122.176 95.8746 123.03C96.1592 123.883 96.6824 124.638 97.3824 125.204C98.0982 125.753 98.9464 126.104 99.8414 126.221C100.736 126.337 101.646 126.215 102.479 125.867" fill="#263238"/>
<path d="M103.062 124.518C103.033 124.999 102.826 125.452 102.482 125.788C102.138 126.125 101.68 126.321 101.199 126.339C101.199 126.258 101.777 126.103 102.27 125.589C102.762 125.075 102.987 124.497 103.062 124.518Z" fill="#2A2A2A"/>
<path d="M101.772 125.482C101.465 125.804 101.103 126.067 100.702 126.258C100.273 126.503 99.7919 126.64 99.2989 126.66C98.9859 126.677 98.6734 126.619 98.3875 126.49C98.1016 126.362 97.8506 126.166 97.6555 125.921C97.4827 125.663 97.3675 125.371 97.3177 125.064C97.2678 124.757 97.2844 124.444 97.3664 124.144C97.4906 123.668 97.7151 123.225 98.0248 122.843C98.2812 122.481 98.596 122.165 98.9563 121.906C98.7181 122.276 98.4608 122.634 98.1854 122.977C97.9167 123.35 97.7239 123.772 97.618 124.219C97.5512 124.482 97.54 124.757 97.5852 125.025C97.6303 125.294 97.7308 125.549 97.8803 125.777C98.0514 125.986 98.2685 126.152 98.5145 126.264C98.7606 126.375 99.029 126.428 99.2989 126.419C99.7564 126.412 100.206 126.302 100.616 126.098C101.312 125.739 101.745 125.439 101.772 125.482Z" fill="#263238"/>
<path d="M95.091 129.92C95.1718 130.056 95.2347 130.202 95.2784 130.354C95.4172 130.755 95.6138 131.133 95.8619 131.478C96.027 131.727 96.2582 131.925 96.5296 132.05C96.801 132.175 97.1019 132.221 97.3984 132.184C97.7532 132.084 98.0762 131.894 98.336 131.632C98.5958 131.371 98.7836 131.046 98.8813 130.691C99.0736 129.942 99.2078 129.18 99.2828 128.41C99.3583 127.751 99.6181 127.125 100.032 126.606C100.329 126.265 100.733 126.034 101.178 125.953C101.339 125.914 101.508 125.929 101.66 125.996C101.66 125.996 101.483 125.996 101.199 126.06C100.797 126.171 100.441 126.408 100.182 126.735C99.8173 127.238 99.5937 127.829 99.5344 128.448C99.4726 129.236 99.3418 130.017 99.1436 130.782C99.0331 131.183 98.8177 131.548 98.5194 131.839C98.2212 132.13 97.8508 132.336 97.4465 132.436C97.0768 132.495 96.6981 132.423 96.3759 132.233C96.1085 132.07 95.8786 131.853 95.7013 131.596C95.4559 131.227 95.2749 130.82 95.166 130.391C95.1111 130.24 95.0856 130.08 95.091 129.92Z" fill="#263238"/>
<path d="M93.1583 162.945C93.1583 162.945 91.1508 177.624 93.1583 179.487C95.1659 181.35 97.0877 180.729 97.0877 180.729L100.905 177.517L101.654 162.924L93.1583 162.945Z" fill="#FFBE9D"/>
<path d="M134.62 121.74L137.169 119.004L141.414 122.399L151.13 112.966L153.459 115.712L141.226 127.779L134.62 121.74Z" fill="#FAC100"/>
<path d="M146.591 122.484L142.897 124.856C142.731 123.394 141.617 121.949 141.671 122.682C141.724 123.416 141.671 127.222 141.671 127.222L135.091 141.082C134.197 143.277 132.383 144.658 131.028 144.985L124.866 146.815L127.27 154.947L135.836 152.11C136.929 151.748 137.922 151.134 138.735 150.319C139.549 149.504 140.16 148.509 140.52 147.415L146.409 129.47C146.8 128.315 147.114 127.134 147.351 125.937C147.608 124.433 146.591 122.484 146.591 122.484Z" fill="#FFBE9D"/>
<path d="M116.328 274.076L116.232 269.97L108.533 270.093L108.603 276.105L109.085 276.132C111.226 276.212 119.904 276.405 121.317 275.955C122.891 275.447 116.328 274.076 116.328 274.076Z" fill="#2A2A2A"/>
<g opacity="0.5">
<path d="M111.398 276.004C111.268 275.363 110.908 274.791 110.386 274.398C109.872 273.998 109.225 273.806 108.576 273.862L108.609 276.004H111.398Z" fill="white"/>
</g>
<g opacity="0.4">
<path d="M119.513 274.863C119.513 274.863 121.815 275.484 121.537 275.87C121.258 276.255 112.468 276.405 108.582 276.105V275.934L118.839 275.864C118.839 275.864 119.09 274.89 119.513 274.863Z" fill="white"/>
</g>
<path d="M108.491 275.929H108.625H109.005L110.407 275.966C111.59 275.993 113.223 276.004 115.027 275.966C116.831 275.929 118.469 275.881 119.647 275.822L121.05 275.741L121.43 275.715H121.558H121.424H121.044L119.647 275.768C118.464 275.806 116.831 275.859 115.027 275.886C113.223 275.913 111.59 275.886 110.407 275.886H109.01H108.475L108.491 275.929Z" fill="#263238"/>
<path d="M118.871 275.982C118.927 275.75 119.011 275.525 119.123 275.313C119.257 275.118 119.414 274.938 119.588 274.778C119.361 274.885 119.17 275.058 119.042 275.275C118.914 275.492 118.855 275.742 118.871 275.993V275.982Z" fill="#263238"/>
<path d="M116.58 274.863C116.58 274.863 116.708 274.746 116.82 274.569C116.933 274.392 116.997 274.232 116.976 274.221C116.954 274.21 116.847 274.339 116.74 274.515C116.633 274.692 116.558 274.853 116.58 274.863Z" fill="#263238"/>
<path d="M115.953 274.548C115.953 274.548 116.087 274.483 116.221 274.36C116.355 274.237 116.441 274.125 116.425 274.109C116.408 274.093 116.285 274.173 116.157 274.291C116.028 274.408 115.932 274.526 115.953 274.548Z" fill="#263238"/>
<path d="M115.546 273.825C115.675 273.872 115.813 273.886 115.948 273.868C116.084 273.883 116.221 273.867 116.349 273.819C116.22 273.778 116.083 273.764 115.948 273.777C115.812 273.761 115.675 273.778 115.546 273.825Z" fill="#263238"/>
<path d="M115.402 273.316C115.537 273.399 115.693 273.442 115.852 273.439C116.01 273.462 116.172 273.438 116.317 273.37C116.164 273.355 116.01 273.355 115.857 273.37C115.707 273.338 115.555 273.32 115.402 273.316Z" fill="#263238"/>
<path d="M116.836 274.189C116.999 274.219 117.166 274.219 117.329 274.189C117.511 274.165 117.69 274.123 117.864 274.066C117.968 274.033 118.069 273.99 118.164 273.937C118.194 273.921 118.221 273.899 118.242 273.872C118.263 273.846 118.279 273.815 118.287 273.782C118.294 273.745 118.289 273.706 118.275 273.672C118.261 273.637 118.237 273.606 118.207 273.584C118.016 273.496 117.801 273.476 117.597 273.527C117.393 273.579 117.214 273.699 117.088 273.868C117.016 273.968 116.963 274.08 116.933 274.2C116.923 274.244 116.923 274.289 116.933 274.333C116.984 274.182 117.058 274.039 117.152 273.91C117.263 273.779 117.407 273.681 117.57 273.627C117.764 273.559 117.978 273.571 118.164 273.659C118.239 273.718 118.212 273.809 118.127 273.862C118.038 273.912 117.945 273.953 117.848 273.985C117.674 274.046 117.495 274.092 117.313 274.125C117.018 274.173 116.836 274.173 116.836 274.189Z" fill="#263238"/>
<path d="M116.96 274.226C117.02 274.123 117.039 274.001 117.013 273.884C116.993 273.755 116.944 273.632 116.869 273.525C116.826 273.452 116.766 273.392 116.694 273.349C116.622 273.306 116.541 273.282 116.457 273.279C116.432 273.284 116.408 273.294 116.387 273.308C116.365 273.323 116.347 273.341 116.333 273.362C116.32 273.384 116.31 273.408 116.305 273.433C116.301 273.458 116.301 273.484 116.307 273.509C116.319 273.588 116.348 273.663 116.392 273.728C116.457 273.838 116.539 273.937 116.633 274.023C116.71 274.112 116.807 274.18 116.917 274.221C116.917 274.221 116.821 274.135 116.681 273.98C116.601 273.889 116.53 273.79 116.467 273.686C116.398 273.584 116.35 273.396 116.467 273.37C116.585 273.343 116.719 273.477 116.794 273.573C116.866 273.669 116.917 273.778 116.944 273.894C116.959 274.004 116.964 274.115 116.96 274.226Z" fill="#263238"/>
<path d="M108.619 273.819C108.619 273.819 108.838 273.819 109.186 273.819C109.64 273.862 110.073 274.033 110.434 274.312C110.795 274.59 111.069 274.965 111.226 275.393C111.349 275.72 111.365 275.929 111.381 275.929C111.392 275.877 111.392 275.825 111.381 275.773C111.364 275.633 111.333 275.495 111.29 275.361C111.142 274.914 110.862 274.522 110.488 274.235C110.114 273.949 109.662 273.782 109.192 273.755C109.051 273.74 108.909 273.74 108.769 273.755C108.715 273.766 108.664 273.788 108.619 273.819Z" fill="#263238"/>
<path d="M109.369 270.607C109.321 271.132 109.306 271.66 109.326 272.187C109.309 272.723 109.325 273.259 109.374 273.793C109.423 273.259 109.437 272.722 109.417 272.187C109.43 271.66 109.414 271.133 109.369 270.607Z" fill="#263238"/>
<path d="M112.35 275.238C112.722 275.314 113.101 275.345 113.48 275.329C113.858 275.345 114.236 275.309 114.604 275.222C114.604 275.195 114.069 275.222 113.48 275.222C112.891 275.222 112.356 275.211 112.35 275.238Z" fill="#263238"/>
<path d="M110.846 275.254C110.846 275.254 110.889 275.361 110.937 275.479C110.985 275.597 111.023 275.693 111.049 275.693C111.076 275.693 111.087 275.57 111.023 275.436C110.958 275.302 110.862 275.238 110.846 275.254Z" fill="#263238"/>
<path d="M110.262 274.558C110.262 274.558 110.295 274.655 110.38 274.735C110.466 274.815 110.541 274.863 110.557 274.847C110.573 274.831 110.525 274.746 110.444 274.671C110.364 274.596 110.284 274.537 110.262 274.558Z" fill="#263238"/>
<path d="M109.444 274.226C109.444 274.226 109.556 274.226 109.668 274.285C109.781 274.344 109.861 274.381 109.883 274.365C109.904 274.349 109.84 274.242 109.695 274.199C109.551 274.157 109.438 274.226 109.444 274.226Z" fill="#263238"/>
<path d="M108.865 274.103C108.865 274.103 108.898 274.168 108.962 274.189C109.026 274.21 109.085 274.216 109.096 274.189C109.106 274.162 109.058 274.125 108.994 274.103C108.93 274.082 108.871 274.077 108.865 274.103Z" fill="#263238"/>
<path d="M89.154 272.765L91.7665 269.59L85.8456 264.66L81.9805 269.264L82.3231 269.596C83.8809 271.046 90.3532 276.86 91.713 277.438C93.2387 278.086 89.154 272.765 89.154 272.765Z" fill="#2A2A2A"/>
<g opacity="0.5">
<path d="M84.1804 271.014C84.5079 270.442 84.6128 269.769 84.4749 269.124C84.3436 268.487 83.9765 267.923 83.447 267.545L82.0391 269.189L84.1804 271.014Z" fill="white"/>
</g>
<g opacity="0.4">
<path d="M91.0759 275.452C91.0759 275.452 92.4142 277.428 91.9539 277.535C91.4935 277.642 84.7161 272.01 81.9805 269.264L82.0982 269.141L89.9196 275.779C89.9196 275.779 90.7172 275.179 91.0759 275.452Z" fill="white"/>
</g>
<path d="M82.0073 269.06L82.0983 269.157L82.3767 269.419L83.4153 270.361C84.2932 271.148 85.5245 272.224 86.911 273.38C88.2976 274.537 89.5877 275.559 90.5085 276.287L91.622 277.139L91.9272 277.363L92.0396 277.438L91.9379 277.347L91.6434 277.106L90.5728 276.234C89.6466 275.495 88.3779 274.467 86.9913 273.311C85.6048 272.155 84.3682 271.089 83.4795 270.313L82.4088 269.392L82.1197 269.141L82.0073 269.06Z" fill="#263238"/>
<path d="M89.8394 275.87C90.0345 275.728 90.2467 275.611 90.4711 275.522C90.7025 275.463 90.9392 275.427 91.1777 275.415C90.9392 275.327 90.6774 275.327 90.4389 275.415C90.1906 275.489 89.9776 275.65 89.8394 275.87Z" fill="#263238"/>
<path d="M88.8328 273.525C88.8328 273.552 89.0094 273.525 89.2075 273.456C89.4056 273.386 89.5662 273.322 89.5555 273.295C89.5448 273.268 89.3788 273.295 89.1807 273.365C89.0545 273.392 88.9359 273.447 88.8328 273.525Z" fill="#263238"/>
<path d="M88.5652 272.872C88.5652 272.872 88.7097 272.915 88.8917 272.909C89.0738 272.904 89.2129 272.877 89.2129 272.85C89.2129 272.824 89.0631 272.808 88.8864 272.813C88.7762 272.808 88.6663 272.828 88.5652 272.872Z" fill="#263238"/>
<path d="M88.7258 272.085C88.7258 272.085 88.8329 272.235 89.0042 272.379C89.1008 272.477 89.2153 272.555 89.3415 272.61C89.3415 272.61 89.2344 272.454 89.0631 272.31C88.8918 272.165 88.7472 272.042 88.7258 272.085Z" fill="#263238"/>
<path d="M88.9507 271.582C89.009 271.729 89.0978 271.861 89.2114 271.971C89.3249 272.081 89.4605 272.165 89.6091 272.219C89.5055 272.106 89.3946 272.001 89.2772 271.903C89.1006 271.732 88.9989 271.55 88.9507 271.582Z" fill="#263238"/>
<path d="M89.4645 273.156C89.5707 273.283 89.6995 273.39 89.8446 273.471C89.9965 273.57 90.1579 273.652 90.3264 273.718C90.4259 273.763 90.53 273.797 90.6369 273.819C90.7043 273.831 90.7734 273.815 90.8296 273.777C90.8591 273.754 90.8814 273.723 90.8937 273.688C90.9061 273.653 90.908 273.615 90.8992 273.579C90.8166 273.383 90.6681 273.222 90.4793 273.124C90.2906 273.026 90.0736 272.998 89.866 273.043C89.7438 273.067 89.6285 273.118 89.5287 273.193C89.4912 273.217 89.4586 273.248 89.4324 273.284C89.5695 273.201 89.7197 273.141 89.8767 273.107C90.0466 273.078 90.2214 273.099 90.3799 273.166C90.5707 273.24 90.7246 273.386 90.8082 273.573C90.8082 273.67 90.7493 273.723 90.6476 273.707C90.5489 273.685 90.4522 273.654 90.3585 273.616C90.1936 273.555 90.0342 273.48 89.8821 273.391C89.6197 273.289 89.4752 273.156 89.4645 273.156Z" fill="#263238"/>
<path d="M89.5341 273.279C89.5341 273.279 89.6733 273.236 89.8018 273.054C89.8707 272.943 89.9146 272.819 89.9302 272.69C89.9425 272.606 89.9348 272.521 89.9079 272.441C89.8809 272.361 89.8353 272.289 89.775 272.229C89.7288 272.205 89.6747 272.199 89.6246 272.214C89.5744 272.229 89.5323 272.264 89.5073 272.31C89.4666 272.377 89.441 272.451 89.4324 272.529C89.4167 272.655 89.4167 272.783 89.4324 272.909C89.4324 273.027 89.4618 273.143 89.518 273.247C89.518 273.247 89.518 273.113 89.518 272.909C89.5166 272.787 89.5273 272.665 89.5501 272.545C89.5501 272.422 89.6465 272.251 89.7589 272.31C89.8714 272.369 89.8767 272.556 89.8767 272.679C89.8672 272.798 89.8325 272.912 89.775 273.016C89.7047 273.112 89.6239 273.2 89.5341 273.279Z" fill="#263238"/>
<path d="M83.4795 267.545C83.4795 267.545 83.6615 267.668 83.9024 267.92C84.2159 268.251 84.4326 268.662 84.5288 269.108C84.6174 269.556 84.5804 270.019 84.4217 270.447C84.2986 270.779 84.1647 270.955 84.1808 270.982C84.221 270.947 84.2554 270.905 84.2825 270.859C84.3623 270.744 84.4287 270.62 84.4806 270.49C84.6656 270.054 84.7142 269.572 84.6198 269.108C84.5231 268.646 84.2901 268.222 83.9506 267.893C83.8494 267.794 83.7382 267.706 83.6187 267.631C83.5782 267.594 83.531 267.565 83.4795 267.545Z" fill="#263238"/>
<path d="M86.1455 265.591C85.7652 265.96 85.4077 266.352 85.0748 266.764C84.7215 267.156 84.3891 267.567 84.0791 267.995C84.4618 267.63 84.8195 267.24 85.1498 266.828C85.5026 266.433 85.8349 266.02 86.1455 265.591Z" fill="#263238"/>
<path d="M85.3853 271.052C85.614 271.352 85.8803 271.622 86.1776 271.855C86.4555 272.113 86.767 272.333 87.1037 272.508C87.1037 272.508 86.7129 272.187 86.2418 271.785C85.7707 271.384 85.4067 271.014 85.3853 271.052Z" fill="#263238"/>
<path d="M84.229 270.083C84.229 270.083 84.1915 270.19 84.1594 270.313C84.1273 270.436 84.0791 270.527 84.1005 270.543C84.1219 270.559 84.2076 270.479 84.2504 270.334C84.2932 270.19 84.2558 270.077 84.229 270.083Z" fill="#263238"/>
<path d="M84.245 269.173C84.2182 269.173 84.2075 269.269 84.2182 269.381C84.2289 269.494 84.2557 269.585 84.2825 269.585C84.3092 269.585 84.3199 269.489 84.2825 269.376C84.245 269.264 84.2717 269.173 84.245 269.173Z" fill="#263238"/>
<path d="M83.8276 268.402C83.8276 268.429 83.8972 268.493 83.9561 268.594C84.015 268.696 84.0418 268.798 84.0685 268.798C84.0953 268.798 84.1114 268.675 84.0364 268.546C83.9615 268.418 83.8383 268.38 83.8276 268.402Z" fill="#263238"/>
<path d="M83.4795 267.915C83.4795 267.915 83.4795 267.99 83.4795 268.048C83.4795 268.107 83.5598 268.145 83.5812 268.134C83.6026 268.123 83.5812 268.059 83.5812 268C83.5812 267.941 83.5009 267.904 83.4795 267.915Z" fill="#263238"/>
<path d="M105.177 186.746C105.177 186.746 102.612 197.592 103.34 199.739C104.069 201.886 108.763 203.122 108.763 203.122L108.603 232.828L82.6282 264.949L92.2108 272.786C92.2108 272.786 120.338 240.618 122.816 234.777C125.295 228.937 121.21 186.249 121.21 186.249L105.177 186.746Z" fill="#263238"/>
<path d="M118.442 182.324L119.711 272.54L106.504 272.62L99.8715 199.129C98.4689 197.79 96.4935 195.499 96.7665 190.387L97.0877 184.45L118.442 182.324Z" fill="#263238"/>
<path d="M104.524 237.85C104.543 237.802 104.568 237.757 104.599 237.716C104.668 237.62 104.749 237.497 104.85 237.347L105.83 235.96L109.417 230.992V231.062C109.128 227.93 108.78 224.135 108.405 220.039C107.923 214.686 107.538 209.814 107.307 206.286C107.19 204.525 107.115 203.101 107.072 202.116C107.072 201.645 107.04 201.265 107.034 200.976C107.018 200.844 107.018 200.711 107.034 200.58C107.06 200.71 107.076 200.843 107.083 200.976C107.083 201.259 107.136 201.64 107.174 202.111C107.254 203.122 107.361 204.536 107.5 206.276C107.779 209.793 108.196 214.648 108.678 220.012C109.037 224.124 109.401 227.914 109.642 231.062V231.099V231.131L105.974 236.035L104.941 237.39L104.663 237.738C104.55 237.823 104.524 237.855 104.524 237.85Z" fill="#455A64"/>
<path d="M108.571 200.58C107.389 200.517 106.216 200.337 105.07 200.044C103.903 199.847 102.759 199.535 101.654 199.113C102.825 199.263 103.985 199.483 105.129 199.771C106.291 199.975 107.44 200.245 108.571 200.58Z" fill="#455A64"/>
<path d="M117.618 231.399C116.478 230.926 115.278 230.613 114.053 230.468C112.818 230.418 111.582 230.539 110.38 230.826C110.694 230.628 111.043 230.492 111.408 230.425C112.281 230.197 113.186 230.117 114.085 230.189C114.978 230.261 115.854 230.48 116.676 230.837C117.021 230.966 117.34 231.157 117.618 231.399Z" fill="#455A64"/>
<path d="M122.281 235.564C122.34 235.612 118.624 240.602 113.978 246.704C109.331 252.807 105.514 257.727 105.455 257.684C105.396 257.641 109.111 252.647 113.758 246.538C118.405 240.43 122.222 235.516 122.281 235.564Z" fill="#455A64"/>
<path d="M120.493 189.021C120.341 189.412 120.083 189.753 119.749 190.006C119.366 190.342 118.919 190.594 118.434 190.748C117.949 190.901 117.438 190.953 116.932 190.9C116.426 190.847 115.937 190.689 115.495 190.438C115.053 190.187 114.668 189.846 114.363 189.439C114.08 189.126 113.894 188.737 113.828 188.32C114.034 188.663 114.259 188.993 114.503 189.311C115.115 190.052 115.993 190.524 116.949 190.624C117.906 190.724 118.863 190.445 119.615 189.846C119.922 189.587 120.215 189.311 120.493 189.021Z" fill="#455A64"/>
<path d="M102.436 142.602C100.26 140.534 98.9766 137.699 98.8596 134.699C98.7426 131.7 99.8011 128.773 101.81 126.542" fill="#263238"/>
<path d="M95.0108 151.018C95.0108 151.018 92.1413 154.262 91.5471 166.666C91.5471 166.666 99.7218 168.218 99.8717 167.774C100.022 167.33 95.0108 151.018 95.0108 151.018Z" fill="#FAC100"/>
<g opacity="0.3">
<path d="M95.0103 151.018C95.0103 151.018 92.1409 154.262 91.5466 166.666C91.5466 166.666 99.7213 168.218 99.8712 167.774C100.021 167.329 95.0103 151.018 95.0103 151.018Z" fill="#FAC100"/>
</g>
<path d="M96.3383 187.148H121.44L121.034 183.224C121.034 183.224 118.164 168.309 118.186 168.111L118.635 167.164C119.222 165.933 119.535 164.591 119.555 163.228C119.574 161.865 119.299 160.514 118.748 159.267L131.06 155.065L128.052 144.926C122.474 145.862 114.042 146.917 114.042 146.917L112.789 147.019C112.789 147.019 104.085 147.474 103.897 147.495C100.257 147.94 96.0224 148.218 94.4753 152.115C93.6455 154.198 94.4325 157.324 95.7869 160.547L98.9989 170.451C100.284 175.895 98.2334 175.633 97.1038 181.115C96.9218 181.939 96.3222 186.388 96.3383 187.148Z" fill="#FAC100"/>
<g opacity="0.3">
<path d="M96.3383 187.148H121.44L121.034 183.224C121.034 183.224 118.164 168.309 118.186 168.111L118.635 167.164C119.222 165.933 119.535 164.591 119.555 163.228C119.574 161.865 119.299 160.514 118.748 159.267L131.06 155.065L128.052 144.926C122.474 145.862 114.042 146.917 114.042 146.917L112.789 147.019C112.789 147.019 104.085 147.474 103.897 147.495C100.257 147.94 96.0224 148.218 94.4753 152.115C93.6455 154.198 94.4325 157.324 95.7869 160.547L98.9989 170.451C100.284 175.895 98.2334 175.633 97.1038 181.115C96.9218 181.939 96.3222 186.388 96.3383 187.148Z" fill="#FAC100"/>
</g>
<path d="M130.921 155.231C130.751 155.326 130.572 155.404 130.386 155.461C130.033 155.59 129.513 155.766 128.871 155.996C127.586 156.43 125.798 157.003 123.828 157.635C121.858 158.266 120.081 158.893 118.849 159.407C118.218 159.664 117.72 159.888 117.372 160.038C117.203 160.132 117.023 160.204 116.836 160.252C116.992 160.129 117.161 160.023 117.34 159.937C117.677 159.76 118.164 159.503 118.785 159.225C120.408 158.517 122.068 157.899 123.758 157.372C125.734 156.741 127.506 156.195 128.828 155.809C129.476 155.616 130.006 155.466 130.37 155.365C130.547 155.297 130.733 155.252 130.921 155.231Z" fill="#263238"/>
<path d="M129.465 149.829C129.465 149.904 122.04 149.969 112.87 149.969C103.699 149.969 96.2742 149.904 96.2742 149.829C96.2742 149.754 103.694 149.69 112.87 149.69C122.045 149.69 129.465 149.754 129.465 149.829Z" fill="#FAFAFA"/>
<path d="M130.22 154.76C130.22 154.835 121.96 154.899 111.772 154.899C101.585 154.899 93.3298 154.835 93.3298 154.76C93.3298 154.685 101.585 154.621 111.772 154.621C121.96 154.621 130.22 154.685 130.22 154.76Z" fill="#FAFAFA"/>
<path d="M95.4229 160.37C94.9211 160.506 94.3993 160.553 93.8812 160.509C93.3648 160.553 92.8448 160.506 92.3447 160.37C92.8448 160.234 93.3648 160.187 93.8812 160.231C94.3993 160.187 94.9211 160.234 95.4229 160.37Z" fill="#FAFAFA"/>
<path d="M119.513 160.541C119.513 160.616 114.111 160.681 107.452 160.681C100.792 160.681 95.3906 160.616 95.3906 160.541C95.3906 160.467 100.787 160.402 107.452 160.402C114.117 160.402 119.513 160.461 119.513 160.541Z" fill="#FAFAFA"/>
<path d="M118.978 166.318C118.978 166.398 114.128 166.457 108.153 166.457C102.179 166.457 97.3235 166.398 97.3235 166.318C97.3235 166.237 102.168 166.179 108.153 166.179C114.139 166.179 118.978 166.243 118.978 166.318Z" fill="#FAFAFA"/>
<path d="M118.828 171.677C118.828 171.751 114.438 171.816 109.021 171.816C103.603 171.816 99.2024 171.751 99.2024 171.677C99.2024 171.602 103.598 171.537 109.021 171.537C114.444 171.537 118.828 171.596 118.828 171.677Z" fill="#FAFAFA"/>
<path d="M119.69 176.007C119.69 176.088 114.99 176.147 109.192 176.147C103.394 176.147 98.6938 176.088 98.6938 176.007C98.6938 175.927 103.394 175.868 109.192 175.868C114.99 175.868 119.69 175.933 119.69 176.007Z" fill="#FAFAFA"/>
<path d="M121.049 181.532C121.049 181.612 115.696 181.671 109.106 181.671C102.516 181.671 97.1626 181.612 97.1626 181.532C97.1626 181.452 102.516 181.393 109.106 181.393C115.696 181.393 121.049 181.457 121.049 181.532Z" fill="#FAFAFA"/>
<path d="M98.833 169.985C98.7319 169.834 98.656 169.668 98.6081 169.492L98.0728 168.122C97.6284 166.966 97.0021 165.37 96.3597 163.588C95.7173 161.805 95.1766 160.177 94.8393 158.984C94.6734 158.384 94.5449 157.913 94.4753 157.56C94.4238 157.385 94.3932 157.206 94.3843 157.024C94.632 157.646 94.8464 158.28 95.0267 158.925C95.4121 160.102 95.9742 161.719 96.6327 163.497C97.2912 165.274 97.8693 166.88 98.2387 168.058C98.4368 168.647 98.5867 169.128 98.6831 169.46C98.7552 169.628 98.8056 169.804 98.833 169.985Z" fill="#263238"/>
</g>
</svg>
